<svg xmlns="http://www.w3.org/2000/svg" width="89.467" height="89.714" viewBox="0 0 89.467 89.714">
  <g id="Grupo_8384" data-name="Grupo 8384" transform="translate(-189.851 -8530.676)">
    <path id="Trazado_2583" data-name="Trazado 2583" d="M274.884,8577.874a42.421,42.421,0,0,1-16.228,33.413v.007a42.536,42.536,0,0,1-67.7-43.108h.007a42.5,42.5,0,0,1,16.521-24.791h.007a41.966,41.966,0,0,1,5.526-3.395,42.6,42.6,0,0,1,31.406-2.9,41.35,41.35,0,0,1,9.987,4.417,42.626,42.626,0,0,1,12.176,11.125h.008a42.4,42.4,0,0,1,6.92,14.484h.008a44.581,44.581,0,0,1,1.036,5.446c.161,1.32.27,2.657.307,4.015.014.431.014.854.014,1.285Z" fill="#59a5b2"/>
    <g id="Grupo_8383" data-name="Grupo 8383">
      <path id="Trazado_2584" data-name="Trazado 2584" d="M266.591,8552.644c-3.577.409-4.613-1.124-10.972-1.729s-2.161,10.074-8.972,7.753-2.986-10.242-6.585-13.345-1.934-5.972,4.366-8.221a41.35,41.35,0,0,1,9.987,4.417,42.626,42.626,0,0,1,12.176,11.125Z" fill="#63ceba"/>
      <path id="Trazado_2585" data-name="Trazado 2585" d="M233.5,8612.4a11.643,11.643,0,0,0-1.131,7.992,42.674,42.674,0,0,1-8.8-.912c.007-.27.109-6.089-2.344-8.753-2.511-2.729-5.606-3.468-5.606-8.636s-6.242-11.023-8.49-12.7c-3.475-2.585-8.49-1.256-9.527-9.082s-3.592-10.234-6.629-12.126a42.5,42.5,0,0,1,16.521-24.791h.007c7.008,2.885,11.44.745,15.272,1.556s2.694,8.753,6.979,11.482c4.22,2.694-1.883,10.521-6.906,5.717s-7.256.985-6.716,4.212c.964,5.737-.285,8.848-4.351,10.234a4.617,4.617,0,0,0-2.891,5.826,5,5,0,0,0,2.227,2.869c3.65,2.11,9.41,6.424,14.279,4.431s12.578-2.364,12.8,2.657S235.719,8608.075,233.5,8612.4Z" fill="#63ceba"/>
      <path id="Trazado_2586" data-name="Trazado 2586" d="M274.884,8577.874a42.421,42.421,0,0,1-16.228,33.413c-.423-4.9-.489-6.84-6.264-12.483s-7.621-5.65-5.519-12.184,2.913-3.614-1.511-9.264,1.03-9.893,5.9-11.068,5.906,3.563,10.782,2.5c3.775-.817,8.3-4.38,11.476-1.664h.008a44.581,44.581,0,0,1,1.036,5.446c.161,1.32.27,2.657.307,4.015.014.431.014.854.014,1.285Z" fill="#63ceba"/>
    </g>
    <path id="Trazado_2587" data-name="Trazado 2587" d="M239.516,8567.582l-1.781,3.386a1.038,1.038,0,0,0,1.29,1.453l4.374-1.679a3.069,3.069,0,0,1,2.7.248,21.779,21.779,0,1,0-6.766-6.578,3.115,3.115,0,0,1,.182,3.17Z" fill="#f7f0e8"/>
    <path id="Trazado_2588" data-name="Trazado 2588" d="M251.967,8544.529a6.734,6.734,0,0,1,5.055,2.288.607.607,0,0,0,.856.053l.054-.053a6.734,6.734,0,0,1,5.055-2.288c3.752,0,6.306,3.083,6.306,6.885a12.107,12.107,0,0,1-3.8,8.171,16.777,16.777,0,0,1-7.646,4.165,2.023,2.023,0,0,1-.751,0,16.769,16.769,0,0,1-7.647-4.165,12.107,12.107,0,0,1-3.8-8.171c0-3.8,2.558-6.885,6.31-6.885Z" fill="#ff889c"/>
  </g>
</svg>
