<svg xmlns="http://www.w3.org/2000/svg" width="75.005" height="89.715" viewBox="0 0 75.005 89.715">
  <g id="Grupo_8393" data-name="Grupo 8393" transform="translate(-197.083 -9142.739)">
    <path id="Trazado_2623" data-name="Trazado 2623" d="M239.225,9169.584a5.828,5.828,0,0,1,.519-8.444,13.262,13.262,0,0,1,9.553-2.886,1.336,1.336,0,0,1,1.252,1.246c.227,3.68-.809,7.641-3.394,10.081a5.667,5.667,0,0,1-7.93,0Z" fill="#63ceba"/>
    <path id="Trazado_2624" data-name="Trazado 2624" d="M232.091,9169.187c3.239-3.233,2.694-8.507-.71-11.565-3.37-3.028-8.392-4.241-13.086-3.953a1.826,1.826,0,0,0-1.712,1.706c-.312,5.039,1.108,10.46,4.648,13.807a7.762,7.762,0,0,0,10.86.006Z" fill="#63ceba"/>
    <g id="Grupo_8392" data-name="Grupo 8392">
      <path id="Trazado_2625" data-name="Trazado 2625" d="M236.009,9187.512a1.113,1.113,0,0,1-1.113-1.112v-5.1c0-8.214,2.579-13.744,8.116-17.4a1.112,1.112,0,1,1,1.3,1.8c-.024.017-.049.034-.074.049-4.857,3.21-7.117,8.152-7.117,15.549v5.1A1.114,1.114,0,0,1,236.009,9187.512Z" fill="#b26b88"/>
      <path id="Trazado_2626" data-name="Trazado 2626" d="M236.009,9182.412a1.113,1.113,0,0,1-1.113-1.113c0-7.477-4.922-14.643-9.783-17.856a1.113,1.113,0,0,1,1.226-1.855c5.357,3.541,10.783,11.453,10.783,19.712A1.114,1.114,0,0,1,236.009,9182.412Z" fill="#b26b88"/>
      <path id="Trazado_2627" data-name="Trazado 2627" d="M225.723,9167.6a1.113,1.113,0,0,1-.123-2.219l4.011-.452a1.112,1.112,0,0,1,.256,2.21h-.006l-4.012.453a1.089,1.089,0,0,1-.126.007Z" fill="#b26b88"/>
      <path id="Trazado_2628" data-name="Trazado 2628" d="M243.73,9168.218a1.069,1.069,0,0,1-.267-.033l-2.3-.565a1.113,1.113,0,1,1,.468-2.176l.063.015,2.3.567a1.112,1.112,0,0,1-.264,2.192Z" fill="#b26b88"/>
    </g>
    <path id="Trazado_2629" data-name="Trazado 2629" d="M216.657,9183.722h40.36a2.246,2.246,0,0,1,2.246,2.246v7.432H214.411v-7.429a2.246,2.246,0,0,1,2.243-2.249Z" fill="#ff889c"/>
    <rect id="Rectángulo_3123" data-name="Rectángulo 3123" width="51.29" height="26.496" rx="2.995" transform="translate(211.192 9190.785)" fill="#ffaeb2"/>
    <path id="Trazado_2630" data-name="Trazado 2630" d="M270.552,9214.2c-4.132-2.956-12.628.659-17.758,1.112,3.614-.452,4.7-5.151,1.113-7.173-2.069-1.166-9.619-3.465-14.539-4.615a35.682,35.682,0,0,0-23.312,2.5c-4,1.751-15.5,9.1-18.427,13.384a2.731,2.731,0,0,0-.534,1.9c.207,2.552,7.631,10.111,9.951,10.939a2.776,2.776,0,0,0,2.6-.273c1.439-.866,4.634-3.822,7.792-4.829,5.853-1.866,15.407.176,20.088.2,6.885.037,30.036-5.177,33.677-8.276,1.457-1.237,1.013-3.673-.655-4.871Z" fill="#ffc2b6"/>
    <path id="Trazado_2631" data-name="Trazado 2631" d="M251.616,9216.492a30.375,30.375,0,0,1-5.048-.6c-3.295-.572-6.7-1.166-9.377.224a1.113,1.113,0,0,1-1.027-1.976h0c3.342-1.737,7.3-1.049,10.785-.444a20.96,20.96,0,0,0,5.707.511,1.113,1.113,0,0,1,.325,2.2l-.049.006A10.58,10.58,0,0,1,251.616,9216.492Z" fill="#ffa39c"/>
    <path id="Trazado_2632" data-name="Trazado 2632" d="M261.994,9143.635l.909,1.661a1.721,1.721,0,0,0,.684.685l1.661.907a1.722,1.722,0,0,1,0,3.02l-1.661.909a1.706,1.706,0,0,0-.684.684l-.909,1.659a1.72,1.72,0,0,1-3.019,0l-.908-1.66a1.706,1.706,0,0,0-.684-.684l-1.661-.909a1.721,1.721,0,0,1,0-3.02l1.661-.908a1.718,1.718,0,0,0,.684-.684l.908-1.66a1.72,1.72,0,0,1,3.019,0Z" fill="#ffb273"/>
    <path id="Trazado_2633" data-name="Trazado 2633" d="M205.669,9170.328l.611,1.119a1.181,1.181,0,0,0,.461.461l1.118.61a1.158,1.158,0,0,1,.461,1.571,1.144,1.144,0,0,1-.461.461l-1.118.612a1.16,1.16,0,0,0-.461.46l-.611,1.118a1.157,1.157,0,0,1-2.032,0l-.612-1.118a1.151,1.151,0,0,0-.46-.46l-1.124-.612a1.158,1.158,0,0,1,0-2.032l1.118-.61a1.172,1.172,0,0,0,.46-.461l.612-1.119a1.159,1.159,0,0,1,2.038,0Z" fill="#ffcba4"/>
  </g>
</svg>
