<svg xmlns="http://www.w3.org/2000/svg" width="117.39" height="117.39" viewBox="0 0 117.39 117.39">
  <g id="Grupo_8365" data-name="Grupo 8365" transform="translate(-190.059 -1765.175)">
    <rect id="Rectángulo_3096" data-name="Rectángulo 3096" width="60.719" height="89.054" transform="translate(218.394 1777.318)" fill="#87ced9"/>
    <path id="Trazado_2500" data-name="Trazado 2500" d="M279.113,1813.75l-52.623,52.623h52.623Zm0,0" fill="#71c4d1"/>
    <path id="Trazado_2501" data-name="Trazado 2501" d="M218.394,1874.469a8.1,8.1,0,0,0,8.1,8.1h44.527a8.1,8.1,0,0,0,8.1-8.1v-8.1H218.394Zm0,0" fill="#fff"/>
    <path id="Trazado_2502" data-name="Trazado 2502" d="M271.017,1765.175H226.49a8.1,8.1,0,0,0-8.1,8.1v4.047h60.719v-4.047a8.1,8.1,0,0,0-8.1-8.1Zm0,0" fill="#fff"/>
    <rect id="Rectángulo_3097" data-name="Rectángulo 3097" width="4.048" height="4.048" transform="translate(246.73 1872.445)" fill="#a0a1a3"/>
    <path id="Trazado_2503" data-name="Trazado 2503" d="M254.826,1777.318h12.143v6.072a6.071,6.071,0,1,1-12.143,0Zm0,0" fill="#ffc24f"/>
    <path id="Trazado_2504" data-name="Trazado 2504" d="M230.538,1777.318h12.144v6.072a6.072,6.072,0,1,1-12.144,0Zm0,0" fill="#ffc24f"/>
    <path id="Trazado_2505" data-name="Trazado 2505" d="M242.682,1777.318h12.144v6.072a6.072,6.072,0,1,1-12.144,0Zm0,0" fill="#e3584b"/>
    <path id="Trazado_2506" data-name="Trazado 2506" d="M266.969,1777.318h12.144v6.072a6.072,6.072,0,1,1-12.144,0Zm0,0" fill="#e3584b"/>
    <path id="Trazado_2507" data-name="Trazado 2507" d="M218.394,1777.318h12.144v6.072a6.072,6.072,0,1,1-12.144,0Zm0,0" fill="#e3584b"/>
    <rect id="Rectángulo_3098" data-name="Rectángulo 3098" width="36.431" height="40.479" transform="translate(258.874 1817.798)" fill="#e3584b"/>
    <rect id="Rectángulo_3099" data-name="Rectángulo 3099" width="12.144" height="40.479" transform="translate(295.305 1817.798)" fill="#d64740"/>
    <path id="Trazado_2508" data-name="Trazado 2508" d="M301.377,1850.181l-6.072,8.1h12.144Zm0,0" fill="#e3584b"/>
    <path id="Trazado_2509" data-name="Trazado 2509" d="M287.209,1823.87h-4.048v-12.144a6.072,6.072,0,0,0-12.144,0v12.144h-4.048v-12.144a10.12,10.12,0,0,1,20.24,0Zm0,0" fill="#4d6394"/>
    <path id="Trazado_2510" data-name="Trazado 2510" d="M295.3,1817.8h-4.048v-6.072a6.072,6.072,0,0,0-12.144,0v6.072h-4.048v-6.072a10.12,10.12,0,1,1,20.24,0Zm0,0" fill="#4d6394"/>
    <path id="Trazado_2511" data-name="Trazado 2511" d="M196.131,1799.582h44.527a6.073,6.073,0,0,1,6.072,6.072v24.288a6.072,6.072,0,0,1-6.072,6.071H196.131a6.072,6.072,0,0,1-6.072-6.071v-24.288a6.073,6.073,0,0,1,6.072-6.072Zm0,0" fill="#4398d1"/>
    <path id="Trazado_2512" data-name="Trazado 2512" d="M240.658,1799.582H238.3l-36.431,36.431h38.793a6.072,6.072,0,0,0,6.072-6.071v-24.288a6.073,6.073,0,0,0-6.072-6.072Zm0,0" fill="#3e8cc7"/>
    <path id="Trazado_2513" data-name="Trazado 2513" d="M230.538,1823.87a4.048,4.048,0,1,1-4.048-4.048,4.048,4.048,0,0,1,4.048,4.048Zm0,0" fill="#e3584b"/>
    <path id="Trazado_2514" data-name="Trazado 2514" d="M238.634,1823.87a4.048,4.048,0,1,1-4.048-4.048,4.049,4.049,0,0,1,4.048,4.048Zm0,0" fill="#ffc24f"/>
    <rect id="Rectángulo_3100" data-name="Rectángulo 3100" width="4.048" height="4.048" transform="translate(236.61 1805.654)" fill="#87ced9"/>
    <rect id="Rectángulo_3101" data-name="Rectángulo 3101" width="4.048" height="4.048" transform="translate(228.514 1805.654)" fill="#87ced9"/>
    <rect id="Rectángulo_3102" data-name="Rectángulo 3102" width="8.096" height="8.096" transform="translate(198.155 1807.678)" fill="#ffc24f"/>
    <rect id="Rectángulo_3103" data-name="Rectángulo 3103" width="4.048" height="4.048" transform="translate(196.131 1821.846)" fill="#87ced9"/>
    <rect id="Rectángulo_3104" data-name="Rectángulo 3104" width="4.048" height="4.048" transform="translate(204.227 1821.846)" fill="#87ced9"/>
    <rect id="Rectángulo_3105" data-name="Rectángulo 3105" width="4.048" height="4.048" transform="translate(212.322 1821.846)" fill="#87ced9"/>
    <path id="Trazado_2515" data-name="Trazado 2515" d="M250.778,1833.989V1809.7a6.051,6.051,0,0,0-4.332-5.788,6.013,6.013,0,0,1,.284,1.74v24.288a6.072,6.072,0,0,1-6.072,6.071H218.394v4.048h26.312a6.072,6.072,0,0,0,6.072-6.072Zm0,0" fill="#71c4d1"/>
  </g>
</svg>
