<svg xmlns="http://www.w3.org/2000/svg" width="103.62" height="99.401" viewBox="0 0 103.62 99.401">
  <g id="Grupo_8407" data-name="Grupo 8407" transform="translate(-201.064 -11214.986)">
    <g id="Grupo_8402" data-name="Grupo 8402">
      <g id="Grupo_8401" data-name="Grupo 8401">
        <rect id="Rect치ngulo_3130" data-name="Rect치ngulo 3130" width="10.762" height="12.047" transform="translate(247.493 11294.83)" fill="#6e82a6"/>
        <rect id="Rect치ngulo_3131" data-name="Rect치ngulo 3131" width="10.762" height="5.13" transform="translate(247.493 11294.83)" fill="#53627d"/>
        <path id="Trazado_2638" data-name="Trazado 2638" d="M260.148,11306.877H245.6l-15.551,3.192a.9.9,0,0,0-.716.879v2.543a.9.9,0,0,0,.9.9h45.289a.9.9,0,0,0,.9-.9v-2.543a.9.9,0,0,0-.717-.879Z" fill="#6e82a6"/>
      </g>
      <path id="Trazado_2639" data-name="Trazado 2639" d="M201.064,11226.967v61.811a6.054,6.054,0,0,0,6.054,6.053h91.513a6.053,6.053,0,0,0,6.053-6.053v-61.811a6.053,6.053,0,0,0-6.053-6.054H207.118A6.054,6.054,0,0,0,201.064,11226.967Z" fill="#6e82a6"/>
      <path id="Trazado_2640" data-name="Trazado 2640" d="M297.958,11230.429v54.888a2.791,2.791,0,0,1-2.789,2.786H210.58a2.792,2.792,0,0,1-2.79-2.786v-54.888a2.792,2.792,0,0,1,2.79-2.79h84.589A2.792,2.792,0,0,1,297.958,11230.429Z" fill="#9fddff"/>
    </g>
    <g id="Grupo_8406" data-name="Grupo 8406">
      <g id="Grupo_8403" data-name="Grupo 8403">
        <path id="Trazado_2641" data-name="Trazado 2641" d="M255.451,11253.139c-3.387-8.474-6.08-11.15-6.886-17.644-.772-6.218,3.826-11.031,6.459-14.661a.833.833,0,0,0,0-.984,14.171,14.171,0,0,0-8.091-4.863,9.672,9.672,0,0,1-17.176,0,14.18,14.18,0,0,0-8.092,4.863.833.833,0,0,0,0,.984c2.632,3.63,7.231,8.443,6.459,14.661-.806,6.493-3.5,9.17-6.886,17.644-2.416,6.046-1.921,16.068-.955,21.9a.833.833,0,0,0,.823.7h34.482a.831.831,0,0,0,.822-.7C257.372,11269.207,257.867,11259.185,255.451,11253.139Z" fill="#ff5579"/>
        <path id="Trazado_2642" data-name="Trazado 2642" d="M255.451,11253.139c-3.387-8.474-6.08-11.15-6.886-17.644-.772-6.218,3.827-11.031,6.459-14.661a.833.833,0,0,0,0-.984,14.178,14.178,0,0,0-8.092-4.863,9.731,9.731,0,0,1-.777,1.254,12.89,12.89,0,0,1,4.541,3.609.833.833,0,0,1,0,.984c-2.632,3.63-7.231,8.443-6.459,14.661.806,6.493,3.5,9.17,6.886,17.644,2.416,6.046,1.921,16.068.955,21.9a.833.833,0,0,1-.823.7h4.328a.833.833,0,0,0,.823-.7C257.372,11269.207,257.867,11259.185,255.451,11253.139Z" fill="#c43661"/>
        <path id="Trazado_2643" data-name="Trazado 2643" d="M231.1,11247.147c-.294,1.544-.643,3.453-1,5.756a67.625,67.625,0,0,0-.662,8.4,1.518,1.518,0,0,0,1.475,1.561h.043a1.518,1.518,0,0,0,1.516-1.476,64.953,64.953,0,0,1,.627-8.015c.357-2.27.7-4.156.992-5.682a31.967,31.967,0,0,0,8.506,0c.29,1.525.635,3.413.992,5.683a65.117,65.117,0,0,1,.627,8.014,1.517,1.517,0,0,0,1.516,1.476h.043a1.519,1.519,0,0,0,1.475-1.561,67.948,67.948,0,0,0-.662-8.4c-.363-2.3-.711-4.213-1.005-5.757a33.429,33.429,0,0,0,6.136-2.075l.038-.019c-.47-.958-.9-1.855-1.291-2.747a30.089,30.089,0,0,1-6.813,2.142,1.247,1.247,0,0,0-.133.02c-.034.006-.068.015-.1.023a28.918,28.918,0,0,1-10.152,0c-.033-.009-.066-.018-.1-.023a1.284,1.284,0,0,0-.135-.02,30.138,30.138,0,0,1-6.811-2.142c-.388.892-.821,1.789-1.291,2.747l.037.019A33.464,33.464,0,0,0,231.1,11247.147Z" fill="#c43661"/>
        <path id="Trazado_2644" data-name="Trazado 2644" d="M251.755,11245.054l-.013-.026-.064-.131-.016-.033c-.026-.052-.051-.1-.076-.154l-.01-.021-.081-.165v0l-.084-.174h0l-.083-.172,0,0q-.125-.258-.245-.513h0l-.078-.164-.005-.011-.076-.162,0,0q-.117-.252-.23-.5l0,0c-.024-.055-.049-.108-.073-.164l0,0c-.024-.053-.048-.105-.071-.158l0-.012-.069-.156,0-.007a30.584,30.584,0,0,1-3.7,1.384c.413.873.865,1.776,1.347,2.761a33.447,33.447,0,0,0,3.6-1.379Z" fill="#911645"/>
      </g>
      <g id="Grupo_8405" data-name="Grupo 8405">
        <path id="Trazado_2645" data-name="Trazado 2645" d="M277.685,11255.146v9.13h6.943a1.639,1.639,0,0,0,1.639-1.641v-5.85a1.638,1.638,0,0,0-1.639-1.64Z" fill="#6f6c99"/>
        <path id="Trazado_2646" data-name="Trazado 2646" d="M276.281,11256.153h-19.23l2.371-20.21h14.487Zm0,7.115h-19.23l2.371,20.21h14.487Z" fill="#6f6c99"/>
        <g id="Grupo_8404" data-name="Grupo 8404">
          <path id="Trazado_2647" data-name="Trazado 2647" d="M276.281,11256.153l-2.372-20.21h-4.447l2.372,20.21Z" fill="#46436e"/>
          <path id="Trazado_2648" data-name="Trazado 2648" d="M269.462,11283.479h4.447l2.372-20.21h-4.447Z" fill="#46436e"/>
        </g>
        <circle id="Elipse_42" data-name="Elipse 42" cx="14.479" cy="14.479" r="14.479" transform="translate(252.186 11245.231)" fill="#30c1ff"/>
        <path id="Trazado_2649" data-name="Trazado 2649" d="M266.666,11245.232a14.481,14.481,0,0,0-2.451.206,14.482,14.482,0,0,1,0,28.546,14.48,14.48,0,1,0,2.451-28.752Z" fill="#1591cf"/>
        <path id="Trazado_2650" data-name="Trazado 2650" d="M266.666,11275.708a16,16,0,1,1,16-16A16.015,16.015,0,0,1,266.666,11275.708Zm0-28.959a12.961,12.961,0,1,0,12.961,12.962A12.977,12.977,0,0,0,266.666,11246.749Z" fill="#1a1a3a"/>
        <path id="Trazado_2651" data-name="Trazado 2651" d="M270.41,11261.229h-3.744a1.518,1.518,0,0,1-1.518-1.518v-9.016a1.518,1.518,0,0,1,3.036,0v7.5h2.226a1.518,1.518,0,1,1,0,3.035Z" fill="#46436e"/>
      </g>
    </g>
    <path id="Trazado_2652" data-name="Trazado 2652" d="M272.636,11224.665a6.959,6.959,0,0,0-5.024,5.023,1,1,0,0,1-1.893,0,6.959,6.959,0,0,0-5.023-5.023,1,1,0,0,1,0-1.893,6.959,6.959,0,0,0,5.023-5.024,1,1,0,0,1,1.893,0,6.958,6.958,0,0,0,5.024,5.024A1,1,0,0,1,272.636,11224.665Z" fill="#fdcb70"/>
  </g>
</svg>
