<svg xmlns="http://www.w3.org/2000/svg" width="208.862" height="207.919" viewBox="0 0 208.862 207.919">
  <g id="Grupo_8492" data-name="Grupo 8492" transform="translate(-374.971 -2431.167)">
    <path id="Trazado_3064" data-name="Trazado 3064" d="M562.123,2479.871a100.748,100.748,0,0,0-168.673-3.425l-1.094-.747a102.073,102.073,0,0,1,170.89,3.47l-1.123.7" fill="#6bc4ed"/>
    <path id="Trazado_3065" data-name="Trazado 3065" d="M545.037,2608.969l-.887-.984A100.807,100.807,0,0,0,576.507,2520c-.3-2.243-.672-4.5-1.115-6.7l1.3-.261c.448,2.236.827,4.52,1.128,6.791a102.134,102.134,0,0,1-32.782,89.148" fill="#6bc4ed"/>
    <path id="Trazado_3066" data-name="Trazado 3066" d="M490.426,2638.2a102.1,102.1,0,0,1-111.431-129.571l1.272.369a100.779,100.779,0,0,0,109.985,127.889,101.172,101.172,0,0,0,24.129-6.283l.489,1.232a102.469,102.469,0,0,1-24.444,6.364" fill="#6bc4ed"/>
    <path id="Trazado_3067" data-name="Trazado 3067" d="M472.177,2472.257a60.914,60.914,0,1,0,68.379,52.394,60.984,60.984,0,0,0-68.379-52.394m18.9,142.81a83.141,83.141,0,1,1,71.514-93.333,83.236,83.236,0,0,1-71.514,93.333" fill="#6bc4ed"/>
    <path id="Trazado_3068" data-name="Trazado 3068" d="M559.145,2496.531a12.344,12.344,0,1,0,12.343-12.343,12.344,12.344,0,0,0-12.343,12.343" fill="#6bc4ed"/>
    <path id="Trazado_3069" data-name="Trazado 3069" d="M518.666,2621.207a12.345,12.345,0,1,0,12.345-12.344,12.346,12.346,0,0,0-12.345,12.344Z" fill="#6bc4ed"/>
    <path id="Trazado_3070" data-name="Trazado 3070" d="M375.45,2493.9a12.344,12.344,0,1,0,12.345-12.345A12.346,12.346,0,0,0,375.45,2493.9Z" fill="#6bc4ed"/>
    <path id="Trazado_3071" data-name="Trazado 3071" d="M390.408,2500.833h3.663v-11.469h-3.663v11.469Z" fill="#fff"/>
    <path id="Trazado_3072" data-name="Trazado 3072" d="M385.705,2500.833h3.662v-8.6h-3.662v8.6Z" fill="#fff"/>
    <path id="Trazado_3073" data-name="Trazado 3073" d="M381,2500.833h3.662V2495.1H381v5.734Z" fill="#fff"/>
    <path id="Trazado_3074" data-name="Trazado 3074" d="M382.2,2491.954l-.295-.535,9.492-5.24.3.533-9.492,5.242Z" fill="#fff"/>
    <path id="Trazado_3075" data-name="Trazado 3075" d="M390.373,2486.179l1.022,1.262.6-1.452-1.618.19Z" fill="#fff"/>
    <path id="Trazado_3076" data-name="Trazado 3076" d="M574.28,2498.667a1.334,1.334,0,0,0-.379-.991,4.027,4.027,0,0,0-1.466-.753v3.309c1.228-.171,1.845-.691,1.845-1.565Zm-4.653-5.283a1.424,1.424,0,0,0,.382,1.038,3.689,3.689,0,0,0,1.327.739v-3.291a2.418,2.418,0,0,0-1.276.532,1.265,1.265,0,0,0-.433.982Zm6.1,5.173a2.421,2.421,0,0,1-.868,1.909,4.468,4.468,0,0,1-2.424.948v1.974h-1.1v-1.9a11.239,11.239,0,0,1-1.845-.148,5.863,5.863,0,0,1-1.463-.413V2499.6a8.3,8.3,0,0,0,1.628.514,7.95,7.95,0,0,0,1.68.2v-3.743a5.872,5.872,0,0,1-2.446-1.285,2.617,2.617,0,0,1-.7-1.888,2.27,2.27,0,0,1,.864-1.829,4.183,4.183,0,0,1,2.284-.867v-1.549h1.1v1.531a8.7,8.7,0,0,1,3.02.629l-.444,1.115a8.67,8.67,0,0,0-2.576-.6v3.694a9.636,9.636,0,0,1,2,.828,2.811,2.811,0,0,1,.977.928,2.422,2.422,0,0,1,.316,1.272Z" fill="#fff"/>
    <path id="Trazado_3077" data-name="Trazado 3077" d="M530.784,2623a1.917,1.917,0,1,1,0-3.833v.755a1.163,1.163,0,1,0,1.164,1.163h.754a1.917,1.917,0,0,1-1.918,1.915Z" fill="#fff"/>
    <path id="Trazado_3078" data-name="Trazado 3078" d="M530.784,2625.386a4.306,4.306,0,0,1,0-8.612,4.263,4.263,0,0,1,1.938.459l-.34.672a3.518,3.518,0,0,0-1.6-.376,3.552,3.552,0,1,0,3.552,3.551,3.518,3.518,0,0,0-.333-1.5l.684-.319a4.308,4.308,0,0,1-3.9,6.129Z" fill="#fff"/>
    <path id="Trazado_3079" data-name="Trazado 3079" d="M530.784,2627.776a6.7,6.7,0,1,1,3.387-12.475l-.383.651a5.936,5.936,0,1,0,2.061,2.018l.641-.394a6.7,6.7,0,0,1-5.706,10.2Z" fill="#fff"/>
    <path id="Trazado_3080" data-name="Trazado 3080" d="M531.05,2621.347l-.533-.533,6.349-6.351.533.532-6.349,6.351Z" fill="#fff"/>
    <path id="Trazado_3081" data-name="Trazado 3081" d="M536.23,2615.273l-.086-1.924.753-.034.088,1.925-.755.034Z" fill="#fff"/>
    <path id="Trazado_3082" data-name="Trazado 3082" d="M535.269,2616.227l-.071-1.575.755-.032.07,1.572-.754.035Z" fill="#fff"/>
    <path id="Trazado_3083" data-name="Trazado 3083" d="M536.456,2615.548l-.11-.749,1.906-.277.109.745-1.9.281Z" fill="#fff"/>
    <path id="Trazado_3084" data-name="Trazado 3084" d="M535.7,2616.67l-.109-.748,1.558-.227.109.746-1.558.228Z" fill="#fff"/>
    <path id="Trazado_3085" data-name="Trazado 3085" d="M403.941,2606.274h-1.818q-.972-1.048-1.917-2.127h1.772q.967,1.08,1.963,2.127" fill="#329e8d"/>
    <path id="Trazado_3086" data-name="Trazado 3086" d="M559.441,2499.232a12.468,12.468,0,0,1,0-5.4v5.4" fill="#329e8d"/>
    <path id="Trazado_3087" data-name="Trazado 3087" d="M550.2,2564.329a3.013,3.013,0,0,1-3.013,3.014H412.729a3.014,3.014,0,0,1-3.014-3.014v-85.137a3.015,3.015,0,0,1,3.014-3.015h134.46a3.015,3.015,0,0,1,3.013,3.015v85.137" fill="#fff"/>
    <path id="Trazado_3088" data-name="Trazado 3088" d="M550.2,2479.192a3.015,3.015,0,0,0-3.013-3.015H412.729a3.015,3.015,0,0,0-3.014,3.015v40.958L550.2,2479.192" fill="#fff"/>
    <path id="Trazado_3089" data-name="Trazado 3089" d="M544.48,2561.458H415.437v-79.929H544.48v79.929" fill="#32b9ff"/>
    <path id="Trazado_3090" data-name="Trazado 3090" d="M544.48,2517.883v-3.27l.118,3.242-.118.028" fill="azure"/>
    <path id="Trazado_3091" data-name="Trazado 3091" d="M415.452,2548.743l.016-29.1,5.3-.561v28.394l-5.32,1.272m127.2-30.423V2506.2l1.518-.161.313,8.576v3.27l-1.831.437" fill="#8adcff"/>
    <path id="Trazado_3092" data-name="Trazado 3092" d="M542.649,2476.177h-1.492l-.018-.019h1.51v.019" fill="#28a7b2"/>
    <path id="Trazado_3093" data-name="Trazado 3093" d="M541.157,2476.177h-1.442v-.019h1.424l.018.019" fill="#33bcc9"/>
    <path id="Trazado_3094" data-name="Trazado 3094" d="M542.649,2481.529h-.462l.462-.135v.135" fill="#aacaf9"/>
    <path id="Trazado_3095" data-name="Trazado 3095" d="M542.187,2481.529h-2.472v-5.352h2.934v5.217l-.462.135" fill="#aacaf9"/>
    <path id="Trazado_3096" data-name="Trazado 3096" d="M536.907,2558.873H429.732a5.743,5.743,0,0,1-5.742-5.741v-.313a5.742,5.742,0,0,0,2.537.588H533.962a5.754,5.754,0,0,0,5.753-5.754v-28.631l2.934-.7v34.812a5.741,5.741,0,0,1-5.742,5.741m2.808-52.365v-24.979h2.934V2506.2l-2.934.31" fill="#2193f9"/>
    <path id="Trazado_3097" data-name="Trazado 3097" d="M539.715,2519.022v-12.514l2.934-.31v12.123l-2.934.7" fill="#5caef9"/>
    <path id="Trazado_3098" data-name="Trazado 3098" d="M563.136,2599.537c1.213,3.379-.392,4.61-1.895,4.61H398.676c-1.5,0-1.893-1.026-1.893-2.542l.04-2.233c.562-1.392,14.122-29.3,15.624-29.3H547.472a4.386,4.386,0,0,1,3.755,2.533l11.909,26.927" fill="#283042"/>
    <path id="Trazado_3099" data-name="Trazado 3099" d="M561.241,2604.147H398.676c-1.5,0-1.893-1.026-1.893-2.542l.027-1.523a1.717,1.717,0,0,0,1.866,1.336H561.241a1.678,1.678,0,0,0,1.875-1.928l.02.047a6.372,6.372,0,0,1,.428,2.118,2.253,2.253,0,0,1-2.323,2.492" fill="#1e2535"/>
    <path id="Trazado_3100" data-name="Trazado 3100" d="M562.95,2598.883a1.717,1.717,0,0,1-1.709,2.535H398.676a1.718,1.718,0,0,1-1.71-2.535l11.724-29.006a4.391,4.391,0,0,1,3.757-2.534H547.472a4.387,4.387,0,0,1,3.755,2.534l11.723,29.006" fill="#fff"/>
    <path id="Trazado_3101" data-name="Trazado 3101" d="M495.27,2598.624H464.647l.943-6.982h28.848l.832,6.982" fill="#fff"/>
    <path id="Trazado_3102" data-name="Trazado 3102" d="M496.351,2599.5H463.566l1.126-7.5h.849l-.895,6.625H495.27l-.79-6.625h.745l1.127,7.5" fill="#8e95a6"/>
    <path id="Trazado_3103" data-name="Trazado 3103" d="M495.27,2598.624H464.647l.895-6.625H494.48l.79,6.625" fill="#bec3ce"/>
    <path id="Trazado_3104" data-name="Trazado 3104" d="M455.134,2574.5h-10.65l.058-.548h10.592l.137-2.785h.027l-.164,3.333" fill="#4f576c"/>
    <path id="Trazado_3105" data-name="Trazado 3105" d="M466.064,2574.5H455.682l.027-.548h10.355l.134-2.785h.027l-.161,3.333" fill="#4f576c"/>
    <path id="Trazado_3106" data-name="Trazado 3106" d="M476.594,2574.5H466.61l.027-.548h9.958l.05-2.785h.01l-.06,3.333" fill="#4f576c"/>
    <path id="Trazado_3107" data-name="Trazado 3107" d="M419.188,2578.329h-8.346l.2-.548h8.144l.728-2.731h.146l-.873,3.279" fill="#4f576c"/>
    <path id="Trazado_3108" data-name="Trazado 3108" d="M488.085,2574.5H477.14l.01-.548h10.935l.042-2.785h.008l-.05,3.333" fill="#4f576c"/>
    <path id="Trazado_3109" data-name="Trazado 3109" d="M420.207,2574.5h-7.954l.2-.548h7.752l.742-2.785h.147l-.889,3.333" fill="#4f576c"/>
    <path id="Trazado_3110" data-name="Trazado 3110" d="M443.935,2574.5h-11.8l.1-.548h11.7l.293-2.785h.058l-.35,3.333" fill="#4f576c"/>
    <path id="Trazado_3111" data-name="Trazado 3111" d="M431.581,2574.5H420.772l.146-.548h10.663l.485-2.785h.1l-.581,3.333" fill="#4f576c"/>
    <path id="Trazado_3112" data-name="Trazado 3112" d="M519.718,2574.5H509.64l-.123-3.333h.02l.1,2.785H519.67l.048.548" fill="#4f576c"/>
    <path id="Trazado_3113" data-name="Trazado 3113" d="M548.791,2578.329h-8.068l-.871-3.279H540l.726,2.731h7.846l.222.548" fill="#4f576c"/>
    <path id="Trazado_3114" data-name="Trazado 3114" d="M550.787,2583.247h-8.759l-1.16-4.372h.145l1.015,3.823h8.536l.223.549" fill="#4f576c"/>
    <path id="Trazado_3115" data-name="Trazado 3115" d="M417.881,2583.247h-8.852l.2-.549h8.65l1.018-3.823h.145l-1.163,4.372" fill="#4f576c"/>
    <path id="Trazado_3116" data-name="Trazado 3116" d="M539.141,2574.5h-8.125l-.546-3.333h.09l.456,2.785H539l.146.548" fill="#4f576c"/>
    <path id="Trazado_3117" data-name="Trazado 3117" d="M530.463,2574.5h-10.2l-.289-3.333h.048l.241,2.785h10.107l.089.548" fill="#4f576c"/>
    <path id="Trazado_3118" data-name="Trazado 3118" d="M547.24,2574.5h-7.533l-.886-3.333h.146l.74,2.785h7.311l.223.548" fill="#4f576c"/>
    <path id="Trazado_3119" data-name="Trazado 3119" d="M498.588,2574.5h-9.957l.008-.548h9.943l.006.548" fill="#4f576c"/>
    <path id="Trazado_3120" data-name="Trazado 3120" d="M509.093,2574.5h-9.959l-.034-3.333h.006l.029,2.785h9.939l.02.548" fill="#4f576c"/>
    <path id="Trazado_3121" data-name="Trazado 3121" d="M488.028,2578.329H477.072l.01-.548h10.947l.04-2.731h.008l-.048,3.279" fill="#4f576c"/>
    <path id="Trazado_3122" data-name="Trazado 3122" d="M476.525,2578.329h-10.1l.027-.548h10.075l.049-2.731h.01l-.059,3.279" fill="#4f576c"/>
    <path id="Trazado_3123" data-name="Trazado 3123" d="M509.23,2578.329H499.176l-.035-3.279h.006l.029,2.731h10.035l.019.548" fill="#4f576c"/>
    <path id="Trazado_3124" data-name="Trazado 3124" d="M416.863,2587.072h-9.246l.2-.547h9.045l.726-2.732h.145l-.871,3.279" fill="#4f576c"/>
    <path id="Trazado_3125" data-name="Trazado 3125" d="M454.948,2578.329H444.083l.058-.548h10.807l.134-2.731h.026l-.16,3.279" fill="#4f576c"/>
    <path id="Trazado_3126" data-name="Trazado 3126" d="M465.876,2578.329H455.495l.026-.548h10.355l.134-2.731h.027l-.161,3.279" fill="#4f576c"/>
    <path id="Trazado_3127" data-name="Trazado 3127" d="M498.63,2578.329H488.574l.008-.548h10.042l.006.548" fill="#4f576c"/>
    <path id="Trazado_3128" data-name="Trazado 3128" d="M520.481,2583.247H509.956l-.16-4.372h.02l.14,3.823h10.477l.048.549" fill="#4f576c"/>
    <path id="Trazado_3129" data-name="Trazado 3129" d="M509.409,2583.247h-10.18l-.047-4.372h.006l.041,3.823h10.16l.02.549" fill="#4f576c"/>
    <path id="Trazado_3130" data-name="Trazado 3130" d="M520.052,2578.329H509.779l-.12-3.279h.02l.1,2.731H520l.048.548" fill="#4f576c"/>
    <path id="Trazado_3131" data-name="Trazado 3131" d="M531.894,2583.247H521.028l-.38-4.372h.047l.333,3.823H531.8l.089.549" fill="#4f576c"/>
    <path id="Trazado_3132" data-name="Trazado 3132" d="M540.157,2578.329h-8.514l-.537-3.279h.089l.448,2.731h8.369l.145.548" fill="#4f576c"/>
    <path id="Trazado_3133" data-name="Trazado 3133" d="M498.683,2583.247H488.5l.008-.549h10.167l.006.549" fill="#4f576c"/>
    <path id="Trazado_3134" data-name="Trazado 3134" d="M531.089,2578.329H520.6l-.287-3.279h.048l.24,2.731H531l.089.548" fill="#4f576c"/>
    <path id="Trazado_3135" data-name="Trazado 3135" d="M443.533,2578.329H431.47l.1-.548h11.967l.287-2.731h.058l-.345,3.279" fill="#4f576c"/>
    <path id="Trazado_3136" data-name="Trazado 3136" d="M487.9,2587.072H476.916l.01-.547H487.9l.043-2.732h.008l-.051,3.279" fill="#4f576c"/>
    <path id="Trazado_3137" data-name="Trazado 3137" d="M454.519,2587.072H443.161l.058-.547h11.3l.134-2.732h.027l-.161,3.279" fill="#4f576c"/>
    <path id="Trazado_3138" data-name="Trazado 3138" d="M542.479,2587.072h-9.407l-.534-3.279h.089l.445,2.732h9.261l.146.547" fill="#4f576c"/>
    <path id="Trazado_3139" data-name="Trazado 3139" d="M498.724,2587.072H488.446l.008-.547h10.264l.006.547" fill="#4f576c"/>
    <path id="Trazado_3140" data-name="Trazado 3140" d="M520.813,2587.072H510.1l-.12-3.279H510l.1,2.732h10.67l.048.547" fill="#4f576c"/>
    <path id="Trazado_3141" data-name="Trazado 3141" d="M532.52,2587.072H521.362l-.286-3.279h.048l.238,2.732H532.43l.089.547" fill="#4f576c"/>
    <path id="Trazado_3142" data-name="Trazado 3142" d="M430.058,2583.247H418.445l.146-.549h11.467l.667-3.823h.1l-.763,4.372" fill="#4f576c"/>
    <path id="Trazado_3143" data-name="Trazado 3143" d="M430.915,2578.329H419.754l.146-.548h11.015l.476-2.731h.1l-.571,3.279" fill="#4f576c"/>
    <path id="Trazado_3144" data-name="Trazado 3144" d="M442.613,2587.072H429.948l.1-.547h12.57l.285-2.732h.057l-.342,3.279" fill="#4f576c"/>
    <path id="Trazado_3145" data-name="Trazado 3145" d="M429.393,2587.072H417.427l.146-.547h11.82l.474-2.732h.1l-.57,3.279" fill="#4f576c"/>
    <path id="Trazado_3146" data-name="Trazado 3146" d="M552.34,2587.072h-9.3l-.872-3.279h.145l.727,2.732h9.073l.222.547" fill="#4f576c"/>
    <path id="Trazado_3147" data-name="Trazado 3147" d="M415.832,2590.942h-9.643l.2-.548h9.44l.74-2.775h.146l-.885,3.323" fill="#4f576c"/>
    <path id="Trazado_3148" data-name="Trazado 3148" d="M533.153,2590.942H521.7l-.289-3.323h.048l.241,2.775h11.363l.09.548" fill="#4f576c"/>
    <path id="Trazado_3149" data-name="Trazado 3149" d="M454.706,2583.247H443.564l.058-.549h11.084l.188-3.823h.027l-.215,4.372" fill="#4f576c"/>
    <path id="Trazado_3150" data-name="Trazado 3150" d="M541.462,2583.247h-9.015l-.715-4.372h.089l.626,3.823h8.87l.145.549" fill="#4f576c"/>
    <path id="Trazado_3151" data-name="Trazado 3151" d="M543.505,2590.942h-9.8l-.545-3.323h.09l.455,2.775h9.652l.146.548" fill="#4f576c"/>
    <path id="Trazado_3152" data-name="Trazado 3152" d="M553.91,2590.942h-9.839l-.881-3.323h.145l.736,2.775h9.616l.222.548" fill="#4f576c"/>
    <path id="Trazado_3153" data-name="Trazado 3153" d="M476.369,2587.072H466l.027-.547h10.346l.049-2.732h.01l-.059,3.279" fill="#4f576c"/>
    <path id="Trazado_3154" data-name="Trazado 3154" d="M465.449,2587.072H455.067l.027-.547h10.355l.133-2.732h.027l-.16,3.279" fill="#4f576c"/>
    <path id="Trazado_3155" data-name="Trazado 3155" d="M443.015,2583.247h-12.4l.1-.549h12.307l.4-3.823h.057l-.459,4.372" fill="#4f576c"/>
    <path id="Trazado_3156" data-name="Trazado 3156" d="M442.206,2590.942H429.271l.1-.548h12.839l.293-2.775h.057l-.35,3.323" fill="#4f576c"/>
    <path id="Trazado_3157" data-name="Trazado 3157" d="M428.717,2590.942H416.4l.146-.548h12.173l.484-2.775h.1l-.58,3.323" fill="#4f576c"/>
    <path id="Trazado_3158" data-name="Trazado 3158" d="M476.439,2583.247H466.183l.027-.549h10.229l.067-3.823h.01l-.077,4.372" fill="#4f576c"/>
    <path id="Trazado_3159" data-name="Trazado 3159" d="M509.548,2587.072H499.27l-.035-3.279h.006l.029,2.732h10.258l.019.547" fill="#4f576c"/>
    <path id="Trazado_3160" data-name="Trazado 3160" d="M498.766,2590.942H488.39l.008-.548H498.76l.006.548" fill="#4f576c"/>
    <path id="Trazado_3161" data-name="Trazado 3161" d="M509.688,2590.942H499.313l-.038-3.323h.006l.032,2.775h10.356l.02.548" fill="#4f576c"/>
    <path id="Trazado_3162" data-name="Trazado 3162" d="M487.842,2590.942H442.755l.057-.548h45.03l.041-2.775h.008l-.049,3.323" fill="#4f576c"/>
    <path id="Trazado_3163" data-name="Trazado 3163" d="M521.151,2590.942H510.235l-.121-3.323h.02l.1,2.775H521.1l.048.548" fill="#4f576c"/>
    <path id="Trazado_3164" data-name="Trazado 3164" d="M465.635,2583.247h-10.38l.027-.549h10.353l.188-3.823h.027l-.214,4.372" fill="#4f576c"/>
    <path id="Trazado_3165" data-name="Trazado 3165" d="M487.957,2583.247H476.984l.01-.549h10.963l.056-3.823h.008l-.064,4.372" fill="#4f576c"/>
    <path id="Trazado_3166" data-name="Trazado 3166" d="M444.542,2573.957h-.058l.353-3.336H455.3l-.027.551H444.837l-.295,2.785" fill="#d3d4d7"/>
    <path id="Trazado_3167" data-name="Trazado 3167" d="M455.134,2573.957H444.542l.295-2.785h10.434l-.137,2.785" fill="#7b818e"/>
    <path id="Trazado_3168" data-name="Trazado 3168" d="M455.708,2573.957h-.027l.163-3.336h10.38l-.027.551H455.845l-.136,2.785" fill="#d3d4d7"/>
    <path id="Trazado_3169" data-name="Trazado 3169" d="M466.064,2573.957H455.708l.136-2.785H466.2l-.134,2.785" fill="#7b818e"/>
    <path id="Trazado_3170" data-name="Trazado 3170" d="M466.636,2573.957h-.027l.164-3.336h9.88l-.01.551h-9.871l-.137,2.785" fill="#d3d4d7"/>
    <path id="Trazado_3171" data-name="Trazado 3171" d="M476.594,2573.957h-9.958l.137-2.785h9.871l-.05,2.785" fill="#7b818e"/>
    <path id="Trazado_3172" data-name="Trazado 3172" d="M411.044,2577.781h-.2l1.21-3.277h8.01l-.146.546h-7.864l-1.008,2.731" fill="#d3d4d7"/>
    <path id="Trazado_3173" data-name="Trazado 3173" d="M419.188,2577.781h-8.144l1.008-2.731h7.864l-.728,2.731" fill="#7b818e"/>
    <path id="Trazado_3174" data-name="Trazado 3174" d="M477.15,2573.957h-.01l.06-3.336h10.936l-.008.551H477.2l-.05,2.785" fill="#d3d4d7"/>
    <path id="Trazado_3175" data-name="Trazado 3175" d="M488.085,2573.957H477.15l.05-2.785h10.927l-.042,2.785" fill="#7b818e"/>
    <path id="Trazado_3176" data-name="Trazado 3176" d="M412.455,2573.957h-.2l1.232-3.336H421.1l-.147.551h-7.465l-1.03,2.785" fill="#d3d4d7"/>
    <path id="Trazado_3177" data-name="Trazado 3177" d="M420.207,2573.957h-7.752l1.03-2.785h7.465l-.742,2.785" fill="#7b818e"/>
    <path id="Trazado_3178" data-name="Trazado 3178" d="M432.232,2573.957h-.1l.581-3.336h11.569l-.058.551H432.717l-.485,2.785" fill="#d3d4d7"/>
    <path id="Trazado_3179" data-name="Trazado 3179" d="M443.935,2573.957h-11.7l.485-2.785h11.511l-.293,2.785" fill="#7b818e"/>
    <path id="Trazado_3180" data-name="Trazado 3180" d="M420.918,2573.957h-.146l.889-3.336h10.5l-.1.551H421.661l-.742,2.785" fill="#d3d4d7"/>
    <path id="Trazado_3181" data-name="Trazado 3181" d="M431.581,2573.957H420.918l.742-2.785h10.406l-.485,2.785" fill="#7b818e"/>
    <path id="Trazado_3182" data-name="Trazado 3182" d="M519.718,2573.957h-.048l-.243-2.785h-9.889l-.02-.551h9.909l.29,3.336" fill="#d3d4d7"/>
    <path id="Trazado_3183" data-name="Trazado 3183" d="M519.67,2573.957H509.64l-.1-2.785h9.889l.243,2.785" fill="#7b818e"/>
    <path id="Trazado_3184" data-name="Trazado 3184" d="M548.791,2577.781h-.222l-1.106-2.731H540l-.145-.546h7.612l1.328,3.277" fill="#d3d4d7"/>
    <path id="Trazado_3185" data-name="Trazado 3185" d="M548.569,2577.781h-7.846l-.726-2.731h7.466l1.106,2.731" fill="#7b818e"/>
    <path id="Trazado_3186" data-name="Trazado 3186" d="M550.787,2582.7h-.223l-1.551-3.823h-8l-.145-.546h8.146l1.773,4.369" fill="#d3d4d7"/>
    <path id="Trazado_3187" data-name="Trazado 3187" d="M550.564,2582.7h-8.536l-1.015-3.823h8l1.551,3.823" fill="#7b818e"/>
    <path id="Trazado_3188" data-name="Trazado 3188" d="M409.231,2582.7h-.2l1.611-4.369h8.4l-.145.546H410.64l-1.409,3.823" fill="#d3d4d7"/>
    <path id="Trazado_3189" data-name="Trazado 3189" d="M417.881,2582.7h-8.65l1.409-3.823H418.9l-1.018,3.823" fill="#7b818e"/>
    <path id="Trazado_3190" data-name="Trazado 3190" d="M539.141,2573.957H539l-.741-2.785h-7.694l-.09-.551h7.784l.886,3.336" fill="#d3d4d7"/>
    <path id="Trazado_3191" data-name="Trazado 3191" d="M539,2573.957h-7.979l-.456-2.785h7.694l.741,2.785" fill="#7b818e"/>
    <path id="Trazado_3192" data-name="Trazado 3192" d="M530.463,2573.957h-.089l-.454-2.785h-9.895l-.048-.551h9.942l.544,3.336" fill="#d3d4d7"/>
    <path id="Trazado_3193" data-name="Trazado 3193" d="M530.374,2573.957H520.267l-.241-2.785h9.895l.454,2.785" fill="#7b818e"/>
    <path id="Trazado_3194" data-name="Trazado 3194" d="M547.24,2573.957h-.223l-1.132-2.785h-6.919l-.146-.551h7.065l1.354,3.336" fill="#d3d4d7"/>
    <path id="Trazado_3195" data-name="Trazado 3195" d="M547.017,2573.957h-7.311l-.74-2.785h6.919l1.132,2.785" fill="#7b818e"/>
    <path id="Trazado_3196" data-name="Trazado 3196" d="M498.588,2573.957h-.006l-.03-2.785H488.68l-.04,2.785h-.008l.048-3.336h9.872l.036,3.336" fill="#d3d4d7"/>
    <path id="Trazado_3197" data-name="Trazado 3197" d="M498.582,2573.957h-9.943l.04-2.785h9.872l.03,2.785" fill="#7b818e"/>
    <path id="Trazado_3198" data-name="Trazado 3198" d="M509.093,2573.957h-.02l-.1-2.785h-9.867l-.006-.551h9.872l.121,3.336" fill="#d3d4d7"/>
    <path id="Trazado_3199" data-name="Trazado 3199" d="M509.073,2573.957h-9.939l-.029-2.785h9.867l.1,2.785" fill="#7b818e"/>
    <path id="Trazado_3200" data-name="Trazado 3200" d="M477.081,2577.781h-.01l.059-3.277h10.945l-.008.546H477.131l-.05,2.731" fill="#d3d4d7"/>
    <path id="Trazado_3201" data-name="Trazado 3201" d="M488.028,2577.781H477.081l.05-2.731h10.937l-.04,2.731" fill="#7b818e"/>
    <path id="Trazado_3202" data-name="Trazado 3202" d="M466.45,2577.781h-.027l.161-3.277h10l-.01.546h-9.99l-.134,2.731" fill="#d3d4d7"/>
    <path id="Trazado_3203" data-name="Trazado 3203" d="M476.525,2577.781H466.45l.134-2.731h9.99l-.049,2.731" fill="#7b818e"/>
    <path id="Trazado_3204" data-name="Trazado 3204" d="M509.23,2577.781h-.019l-.1-2.731h-9.967l-.006-.546h9.973l.117,3.277" fill="#d3d4d7"/>
    <path id="Trazado_3205" data-name="Trazado 3205" d="M509.211,2577.781H499.176l-.029-2.731h9.967l.1,2.731" fill="#7b818e"/>
    <path id="Trazado_3206" data-name="Trazado 3206" d="M407.819,2586.524h-.2l1.209-3.278h8.909l-.145.546h-8.763l-1.007,2.732" fill="#d3d4d7"/>
    <path id="Trazado_3207" data-name="Trazado 3207" d="M416.863,2586.524h-9.045l1.007-2.732h8.763l-.726,2.732" fill="#7b818e"/>
    <path id="Trazado_3208" data-name="Trazado 3208" d="M444.141,2577.781h-.058l.345-3.277h10.68l-.026.546H444.428l-.288,2.731" fill="#d3d4d7"/>
    <path id="Trazado_3209" data-name="Trazado 3209" d="M454.948,2577.781H444.141l.288-2.731h10.653l-.134,2.731" fill="#7b818e"/>
    <path id="Trazado_3210" data-name="Trazado 3210" d="M455.521,2577.781h-.026l.159-3.277h10.382l-.027.546H455.654l-.133,2.731" fill="#d3d4d7"/>
    <path id="Trazado_3211" data-name="Trazado 3211" d="M465.876,2577.781H455.521l.133-2.731H466.01l-.134,2.731" fill="#7b818e"/>
    <path id="Trazado_3212" data-name="Trazado 3212" d="M498.63,2577.781h-.006l-.03-2.731h-9.971l-.04,2.731h-.008l.048-3.277h9.971l.036,3.277" fill="#d3d4d7"/>
    <path id="Trazado_3213" data-name="Trazado 3213" d="M498.624,2577.781H488.582l.04-2.731h9.971l.03,2.731" fill="#7b818e"/>
    <path id="Trazado_3214" data-name="Trazado 3214" d="M520.481,2582.7h-.048l-.334-3.823H509.816l-.02-.546h10.3l.382,4.369" fill="#d3d4d7"/>
    <path id="Trazado_3215" data-name="Trazado 3215" d="M520.433,2582.7H509.956l-.14-3.823H520.1l.334,3.823" fill="#7b818e"/>
    <path id="Trazado_3216" data-name="Trazado 3216" d="M509.409,2582.7h-.02l-.138-3.823H499.188l-.006-.546h10.069l.158,4.369" fill="#d3d4d7"/>
    <path id="Trazado_3217" data-name="Trazado 3217" d="M509.389,2582.7h-10.16l-.041-3.823h10.063l.138,3.823" fill="#7b818e"/>
    <path id="Trazado_3218" data-name="Trazado 3218" d="M520.052,2577.781H520l-.238-2.731H509.679l-.02-.546h10.107l.286,3.277" fill="#d3d4d7"/>
    <path id="Trazado_3219" data-name="Trazado 3219" d="M520,2577.781H509.779l-.1-2.731h10.086l.238,2.731" fill="#7b818e"/>
    <path id="Trazado_3220" data-name="Trazado 3220" d="M531.894,2582.7H531.8l-.625-3.823H520.7l-.047-.546h10.531l.715,4.369" fill="#d3d4d7"/>
    <path id="Trazado_3221" data-name="Trazado 3221" d="M531.8,2582.7H521.028l-.333-3.823h10.484l.625,3.823" fill="#7b818e"/>
    <path id="Trazado_3222" data-name="Trazado 3222" d="M540.157,2577.781h-.145l-.725-2.731H531.2l-.089-.546h8.18l.871,3.277" fill="#d3d4d7"/>
    <path id="Trazado_3223" data-name="Trazado 3223" d="M540.012,2577.781h-8.369l-.448-2.731h8.091l.725,2.731" fill="#7b818e"/>
    <path id="Trazado_3224" data-name="Trazado 3224" d="M498.683,2582.7h-.006l-.041-3.823h-10.07l-.056,3.823H488.5l.064-4.369h10.07l.047,4.369" fill="#d3d4d7"/>
    <path id="Trazado_3225" data-name="Trazado 3225" d="M498.677,2582.7H488.51l.056-3.823h10.07l.041,3.823" fill="#7b818e"/>
    <path id="Trazado_3226" data-name="Trazado 3226" d="M531.089,2577.781H531l-.447-2.731H520.361l-.048-.546h10.239l.536,3.277" fill="#d3d4d7"/>
    <path id="Trazado_3227" data-name="Trazado 3227" d="M531,2577.781H520.6l-.24-2.731h10.191l.447,2.731" fill="#7b818e"/>
    <path id="Trazado_3228" data-name="Trazado 3228" d="M431.566,2577.781h-.1l.571-3.277h11.836l-.058.546H432.041l-.476,2.731" fill="#d3d4d7"/>
    <path id="Trazado_3229" data-name="Trazado 3229" d="M443.533,2577.781H431.566l.476-2.731H443.82l-.287,2.731" fill="#7b818e"/>
    <path id="Trazado_3230" data-name="Trazado 3230" d="M476.926,2586.524h-.01l.06-3.278H487.95l-.008.546H476.976l-.05,2.732" fill="#d3d4d7"/>
    <path id="Trazado_3231" data-name="Trazado 3231" d="M487.9,2586.524H476.926l.05-2.732h10.966l-.043,2.732" fill="#7b818e"/>
    <path id="Trazado_3232" data-name="Trazado 3232" d="M443.219,2586.524h-.058l.345-3.278H454.68l-.027.546H443.507l-.288,2.732" fill="#d3d4d7"/>
    <path id="Trazado_3233" data-name="Trazado 3233" d="M454.519,2586.524h-11.3l.288-2.732h11.147l-.134,2.732" fill="#7b818e"/>
    <path id="Trazado_3234" data-name="Trazado 3234" d="M542.479,2586.524h-.146l-.725-2.732h-8.981l-.089-.546h9.07l.87,3.278" fill="#d3d4d7"/>
    <path id="Trazado_3235" data-name="Trazado 3235" d="M542.334,2586.524h-9.261l-.445-2.732h8.981l.725,2.732" fill="#7b818e"/>
    <path id="Trazado_3236" data-name="Trazado 3236" d="M498.724,2586.524h-.006l-.029-2.732H488.5l-.042,2.732h-.008l.05-3.278h10.193l.035,3.278" fill="#d3d4d7"/>
    <path id="Trazado_3237" data-name="Trazado 3237" d="M498.718,2586.524H488.454l.042-2.732h10.193l.029,2.732" fill="#7b818e"/>
    <path id="Trazado_3238" data-name="Trazado 3238" d="M520.813,2586.524h-.048l-.238-2.732H510l-.02-.546h10.552l.286,3.278" fill="#d3d4d7"/>
    <path id="Trazado_3239" data-name="Trazado 3239" d="M520.765,2586.524H510.1l-.1-2.732h10.531l.238,2.732" fill="#7b818e"/>
    <path id="Trazado_3240" data-name="Trazado 3240" d="M532.52,2586.524h-.089l-.446-2.732h-10.86l-.048-.546h10.908l.536,3.278" fill="#d3d4d7"/>
    <path id="Trazado_3241" data-name="Trazado 3241" d="M532.43,2586.524H521.362l-.238-2.732h10.86l.446,2.732" fill="#7b818e"/>
    <path id="Trazado_3242" data-name="Trazado 3242" d="M418.591,2582.7h-.146l1.165-4.369h11.21l-.1.546H419.61l-1.019,3.823" fill="#d3d4d7"/>
    <path id="Trazado_3243" data-name="Trazado 3243" d="M430.058,2582.7H418.591l1.019-3.823h11.115l-.667,3.823" fill="#7b818e"/>
    <path id="Trazado_3244" data-name="Trazado 3244" d="M419.9,2577.781h-.146l.873-3.277h10.859l-.1.546H420.627l-.727,2.731" fill="#d3d4d7"/>
    <path id="Trazado_3245" data-name="Trazado 3245" d="M430.915,2577.781H419.9l.727-2.731h10.764l-.476,2.731" fill="#7b818e"/>
    <path id="Trazado_3246" data-name="Trazado 3246" d="M430.043,2586.524h-.1l.569-3.278h12.439l-.057.546H430.517l-.474,2.732" fill="#d3d4d7"/>
    <path id="Trazado_3247" data-name="Trazado 3247" d="M442.613,2586.524h-12.57l.474-2.732H442.9l-.285,2.732" fill="#7b818e"/>
    <path id="Trazado_3248" data-name="Trazado 3248" d="M417.573,2586.524h-.146l.873-3.278h11.662l-.1.546H418.3l-.727,2.732" fill="#d3d4d7"/>
    <path id="Trazado_3249" data-name="Trazado 3249" d="M429.393,2586.524h-11.82l.727-2.732h11.567l-.474,2.732" fill="#7b818e"/>
    <path id="Trazado_3250" data-name="Trazado 3250" d="M552.34,2586.524h-.222l-1.109-2.732h-8.691l-.145-.546h8.836l1.331,3.278" fill="#d3d4d7"/>
    <path id="Trazado_3251" data-name="Trazado 3251" d="M552.118,2586.524h-9.073l-.727-2.732h8.691l1.109,2.732" fill="#7b818e"/>
    <path id="Trazado_3252" data-name="Trazado 3252" d="M406.391,2590.394h-.2l1.227-3.323h9.3l-.146.547h-9.155l-1.025,2.775" fill="#d3d4d7"/>
    <path id="Trazado_3253" data-name="Trazado 3253" d="M415.832,2590.394h-9.44l1.025-2.775h9.155l-.74,2.775" fill="#7b818e"/>
    <path id="Trazado_3254" data-name="Trazado 3254" d="M533.153,2590.394h-.09l-.456-2.775H521.458l-.048-.547h11.2l.546,3.323" fill="#d3d4d7"/>
    <path id="Trazado_3255" data-name="Trazado 3255" d="M533.063,2590.394H521.7l-.241-2.775h11.149l.456,2.775" fill="#7b818e"/>
    <path id="Trazado_3256" data-name="Trazado 3256" d="M443.622,2582.7h-.058l.46-4.369h10.9l-.027.546h-10.87l-.4,3.823" fill="#d3d4d7"/>
    <path id="Trazado_3257" data-name="Trazado 3257" d="M454.706,2582.7H443.622l.4-3.823h10.87l-.188,3.823" fill="#7b818e"/>
    <path id="Trazado_3258" data-name="Trazado 3258" d="M541.462,2582.7h-.145l-1.014-3.823h-8.482l-.089-.546H540.3l1.159,4.369" fill="#d3d4d7"/>
    <path id="Trazado_3259" data-name="Trazado 3259" d="M541.317,2582.7h-8.87l-.626-3.823H540.3l1.014,3.823" fill="#7b818e"/>
    <path id="Trazado_3260" data-name="Trazado 3260" d="M543.505,2590.394h-.146l-.736-2.775h-9.372l-.09-.547h9.461l.882,3.323" fill="#d3d4d7"/>
    <path id="Trazado_3261" data-name="Trazado 3261" d="M543.359,2590.394h-9.652l-.455-2.775h9.372l.736,2.775" fill="#7b818e"/>
    <path id="Trazado_3262" data-name="Trazado 3262" d="M553.91,2590.394h-.222l-1.126-2.775h-9.226l-.145-.547h9.372l1.349,3.323" fill="#d3d4d7"/>
    <path id="Trazado_3263" data-name="Trazado 3263" d="M553.688,2590.394h-9.616l-.736-2.775h9.226l1.126,2.775" fill="#7b818e"/>
    <path id="Trazado_3264" data-name="Trazado 3264" d="M466.023,2586.524H466l.159-3.278h10.272l-.01.546H466.155l-.133,2.732" fill="#d3d4d7"/>
    <path id="Trazado_3265" data-name="Trazado 3265" d="M476.369,2586.524H466.023l.133-2.732h10.262l-.049,2.732" fill="#7b818e"/>
    <path id="Trazado_3266" data-name="Trazado 3266" d="M455.093,2586.524h-.027l.16-3.278h10.382l-.027.546H455.227l-.133,2.732" fill="#d3d4d7"/>
    <path id="Trazado_3267" data-name="Trazado 3267" d="M465.449,2586.524H455.093l.133-2.732h10.355l-.133,2.732" fill="#7b818e"/>
    <path id="Trazado_3268" data-name="Trazado 3268" d="M430.708,2582.7h-.1l.762-4.369h12.1l-.057.546H431.375l-.667,3.823" fill="#d3d4d7"/>
    <path id="Trazado_3269" data-name="Trazado 3269" d="M443.015,2582.7H430.708l.667-3.823h12.043l-.4,3.823" fill="#7b818e"/>
    <path id="Trazado_3270" data-name="Trazado 3270" d="M429.367,2590.394h-.1l.58-3.323h12.7l-.057.547H429.851l-.484,2.775" fill="#d3d4d7"/>
    <path id="Trazado_3271" data-name="Trazado 3271" d="M442.206,2590.394H429.367l.484-2.775H442.5l-.293,2.775" fill="#7b818e"/>
    <path id="Trazado_3272" data-name="Trazado 3272" d="M416.543,2590.394H416.4l.886-3.323H429.3l-.1.547H417.283l-.74,2.775" fill="#d3d4d7"/>
    <path id="Trazado_3273" data-name="Trazado 3273" d="M428.717,2590.394H416.543l.74-2.775H429.2l-.484,2.775" fill="#7b818e"/>
    <path id="Trazado_3274" data-name="Trazado 3274" d="M466.209,2582.7h-.027l.214-4.369h10.118l-.01.546H466.4l-.188,3.823" fill="#d3d4d7"/>
    <path id="Trazado_3275" data-name="Trazado 3275" d="M476.439,2582.7H466.209l.188-3.823h10.109l-.067,3.823" fill="#7b818e"/>
    <path id="Trazado_3276" data-name="Trazado 3276" d="M509.548,2586.524h-.019l-.1-2.732h-10.19l-.006-.546h10.2l.117,3.278" fill="#d3d4d7"/>
    <path id="Trazado_3277" data-name="Trazado 3277" d="M509.528,2586.524H499.27l-.029-2.732h10.19l.1,2.732" fill="#7b818e"/>
    <path id="Trazado_3278" data-name="Trazado 3278" d="M498.766,2590.394h-.006l-.03-2.775H488.438l-.041,2.775h-.008l.049-3.323H498.73l.036,3.323" fill="#d3d4d7"/>
    <path id="Trazado_3279" data-name="Trazado 3279" d="M498.76,2590.394H488.4l.041-2.775H498.73l.03,2.775" fill="#7b818e"/>
    <path id="Trazado_3280" data-name="Trazado 3280" d="M509.688,2590.394h-.02l-.1-2.775H499.281l-.006-.547h10.293l.121,3.323" fill="#d3d4d7"/>
    <path id="Trazado_3281" data-name="Trazado 3281" d="M509.668,2590.394H499.313l-.032-2.775h10.287l.1,2.775" fill="#7b818e"/>
    <path id="Trazado_3282" data-name="Trazado 3282" d="M442.812,2590.394h-.057l.349-3.323h44.787l-.008.547H443.1l-.292,2.775" fill="#d3d4d7"/>
    <path id="Trazado_3283" data-name="Trazado 3283" d="M487.842,2590.394h-45.03l.292-2.775h44.779l-.041,2.775" fill="#7b818e"/>
    <path id="Trazado_3284" data-name="Trazado 3284" d="M521.151,2590.394H521.1l-.242-2.775H510.134l-.02-.547h10.748l.29,3.323" fill="#d3d4d7"/>
    <path id="Trazado_3285" data-name="Trazado 3285" d="M521.1,2590.394H510.235l-.1-2.775h10.728l.242,2.775" fill="#7b818e"/>
    <path id="Trazado_3286" data-name="Trazado 3286" d="M455.281,2582.7h-.027l.214-4.369h10.381l-.027.546H455.468l-.187,3.823" fill="#d3d4d7"/>
    <path id="Trazado_3287" data-name="Trazado 3287" d="M465.635,2582.7H455.281l.187-3.823h10.354l-.188,3.823" fill="#7b818e"/>
    <path id="Trazado_3288" data-name="Trazado 3288" d="M476.994,2582.7h-.01l.078-4.369h10.959l-.008.546H477.062l-.068,3.823" fill="#d3d4d7"/>
    <path id="Trazado_3289" data-name="Trazado 3289" d="M487.957,2582.7H476.994l.068-3.823h10.951l-.056,3.823" fill="#7b818e"/>
    <path id="Trazado_3290" data-name="Trazado 3290" d="M539.715,2547.653a5.754,5.754,0,0,1-5.753,5.754H426.527a5.755,5.755,0,0,1-5.755-5.754V2472.6a5.754,5.754,0,0,1,5.755-5.754H533.962a5.752,5.752,0,0,1,5.753,5.754v75.054" fill="#fff"/>
    <path id="Trazado_3291" data-name="Trazado 3291" d="M539.715,2477.456V2472.6a5.752,5.752,0,0,0-5.753-5.754H426.527a5.754,5.754,0,0,0-5.755,5.754v4.857H539.715" fill="#354f66"/>
    <path id="Trazado_3292" data-name="Trazado 3292" d="M521.185,2474.31a2.158,2.158,0,1,1,2.159-2.16,2.159,2.159,0,0,1-2.159,2.16" fill="#0b111c"/>
    <path id="Trazado_3293" data-name="Trazado 3293" d="M529.337,2474.31a2.158,2.158,0,1,1,2.159-2.16,2.158,2.158,0,0,1-2.159,2.16" fill="#0b111c"/>
    <path id="Trazado_3294" data-name="Trazado 3294" d="M512.9,2474.31a2.158,2.158,0,1,1,2.159-2.16,2.159,2.159,0,0,1-2.159,2.16" fill="#0b111c"/>
    <path id="Trazado_3295" data-name="Trazado 3295" d="M537.805,2503.408H422.683v-23.84H537.805v23.84Z" fill="#8aed8a"/>
    <path id="Trazado_3296" data-name="Trazado 3296" d="M463.889,2472.15a2.245,2.245,0,0,1-2.244,2.245h-28a2.245,2.245,0,0,1,0-4.489h28a2.244,2.244,0,0,1,2.244,2.244Z" fill="#fff"/>
    <path id="Trazado_3297" data-name="Trazado 3297" d="M435.643,2472.679a.609.609,0,0,1-.228.5,1,1,0,0,1-.637.183,1.5,1.5,0,0,1-.666-.142v-.462a2.66,2.66,0,0,0,.4.148,1.145,1.145,0,0,0,.3.044.434.434,0,0,0,.251-.062.216.216,0,0,0,.088-.186.2.2,0,0,0-.038-.123.463.463,0,0,0-.114-.1,2.977,2.977,0,0,0-.3-.16,1.411,1.411,0,0,1-.323-.193.734.734,0,0,1-.171-.218.612.612,0,0,1-.064-.288.6.6,0,0,1,.211-.49.876.876,0,0,1,.583-.179,1.379,1.379,0,0,1,.35.043,2.315,2.315,0,0,1,.347.123l-.159.388a2.288,2.288,0,0,0-.312-.109,1,1,0,0,0-.241-.031.332.332,0,0,0-.218.066.223.223,0,0,0-.075.172.212.212,0,0,0,.031.116.338.338,0,0,0,.1.095,3.449,3.449,0,0,0,.316.164,1.259,1.259,0,0,1,.451.315.62.62,0,0,1,.122.389Z" fill="#283042"/>
    <path id="Trazado_3298" data-name="Trazado 3298" d="M436.775,2471.85a.314.314,0,0,0-.245.1.461.461,0,0,0-.1.28h.687a.413.413,0,0,0-.094-.28.322.322,0,0,0-.247-.1Zm.068,1.513a.934.934,0,0,1-.678-.239.911.911,0,0,1-.244-.679.993.993,0,0,1,.226-.7.919.919,0,0,1,1.217-.031.823.823,0,0,1,.212.6v.239h-1.159a.469.469,0,0,0,.125.326.432.432,0,0,0,.324.117,1.378,1.378,0,0,0,.307-.033,1.519,1.519,0,0,0,.3-.109v.38a1.132,1.132,0,0,1-.275.095,1.712,1.712,0,0,1-.356.032Z" fill="#283042"/>
    <path id="Trazado_3299" data-name="Trazado 3299" d="M438.97,2472.5l-.19.007a.614.614,0,0,0-.317.076.241.241,0,0,0-.105.216q0,.207.237.207a.375.375,0,0,0,.273-.1.347.347,0,0,0,.1-.26v-.148Zm.145.832-.1-.244h-.013a.7.7,0,0,1-.255.216.8.8,0,0,1-.341.061.557.557,0,0,1-.408-.148.573.573,0,0,1-.148-.421.47.47,0,0,1,.2-.422,1.16,1.16,0,0,1,.6-.15l.312-.009v-.079a.244.244,0,0,0-.28-.273,1.273,1.273,0,0,0-.506.13l-.162-.331a1.465,1.465,0,0,1,.688-.162.861.861,0,0,1,.555.157.584.584,0,0,1,.193.479v1.2Z" fill="#283042"/>
    <path id="Trazado_3300" data-name="Trazado 3300" d="M440.964,2471.5a.776.776,0,0,1,.165.013l-.037.46a.545.545,0,0,0-.144-.016.518.518,0,0,0-.366.12.433.433,0,0,0-.131.338v.913h-.49v-1.8h.371l.072.3h.025a.683.683,0,0,1,.225-.243.553.553,0,0,1,.31-.091Z" fill="#283042"/>
    <path id="Trazado_3301" data-name="Trazado 3301" d="M442.184,2473.363q-.838,0-.838-.921a.979.979,0,0,1,.228-.7.86.86,0,0,1,.654-.241,1.25,1.25,0,0,1,.559.121l-.144.379a2.119,2.119,0,0,0-.216-.076.654.654,0,0,0-.2-.03q-.383,0-.382.543,0,.527.382.526a.843.843,0,0,0,.262-.037.971.971,0,0,0,.241-.118v.419a.774.774,0,0,1-.24.1,1.374,1.374,0,0,1-.307.029Z" fill="#283042"/>
    <path id="Trazado_3302" data-name="Trazado 3302" d="M444.8,2473.33h-.49v-1.048c0-.259-.1-.39-.288-.39a.328.328,0,0,0-.3.141.851.851,0,0,0-.092.453v.844h-.49v-2.5h.49v.509c0,.04,0,.133-.011.28l-.011.144h.025a.571.571,0,0,1,.521-.262.635.635,0,0,1,.481.169.683.683,0,0,1,.163.489v1.17Z" fill="#283042"/>
    <path id="Trazado_3303" data-name="Trazado 3303" d="M478.793,2484.787a1.883,1.883,0,0,1-1.884,1.883H453.984a1.883,1.883,0,0,1,0-3.766h22.925a1.884,1.884,0,0,1,1.884,1.883Z" fill="#4baa4d"/>
    <path id="Trazado_3304" data-name="Trazado 3304" d="M529.6,2490.436a1.055,1.055,0,0,1-1.054,1.055H453.155a1.054,1.054,0,0,1,0-2.109h75.394a1.055,1.055,0,0,1,1.054,1.054Z" fill="#60c967"/>
    <path id="Trazado_3305" data-name="Trazado 3305" d="M529.6,2494.956a1.055,1.055,0,0,1-1.054,1.054H453.155a1.055,1.055,0,0,1,0-2.109h75.394a1.055,1.055,0,0,1,1.054,1.055Z" fill="#60c967"/>
    <path id="Trazado_3306" data-name="Trazado 3306" d="M505.838,2499.475a1.055,1.055,0,0,1-1.053,1.054h-51.63a1.055,1.055,0,0,1,0-2.109h51.63a1.054,1.054,0,0,1,1.053,1.055Z" fill="#60c967"/>
    <path id="Trazado_3307" data-name="Trazado 3307" d="M430.578,2491.844a9.1,9.1,0,1,0,9.017-9.172,9.1,9.1,0,0,0-9.017,9.172Z" fill="#fff"/>
    <path id="Trazado_3308" data-name="Trazado 3308" d="M478.793,2507.422a1.884,1.884,0,0,1-1.884,1.883H453.984a1.883,1.883,0,0,1,0-3.767h22.925a1.885,1.885,0,0,1,1.884,1.884Z" fill="#a3c4c1"/>
    <path id="Trazado_3309" data-name="Trazado 3309" d="M529.6,2513.071a1.054,1.054,0,0,1-1.054,1.053H453.155a1.054,1.054,0,0,1,0-2.108h75.394a1.055,1.055,0,0,1,1.054,1.055Z" fill="#daedec"/>
    <path id="Trazado_3310" data-name="Trazado 3310" d="M529.6,2517.59a1.055,1.055,0,0,1-1.054,1.054H453.155a1.055,1.055,0,0,1,0-2.109h75.394a1.055,1.055,0,0,1,1.054,1.055Z" fill="#daedec"/>
    <path id="Trazado_3311" data-name="Trazado 3311" d="M505.838,2522.109a1.053,1.053,0,0,1-1.053,1.054h-51.63a1.054,1.054,0,0,1,0-2.108h51.63a1.053,1.053,0,0,1,1.053,1.054Z" fill="#daedec"/>
    <path id="Trazado_3312" data-name="Trazado 3312" d="M430.578,2514.478a9.1,9.1,0,1,0,9.017-9.171,9.1,9.1,0,0,0-9.017,9.171Z" fill="#daedec"/>
    <path id="Trazado_3313" data-name="Trazado 3313" d="M478.793,2529.418a1.884,1.884,0,0,1-1.884,1.883H453.984a1.883,1.883,0,0,1,0-3.766h22.925a1.884,1.884,0,0,1,1.884,1.883Z" fill="#a3c4c1"/>
    <path id="Trazado_3314" data-name="Trazado 3314" d="M529.6,2535.069a1.054,1.054,0,0,1-1.054,1.052H453.155a1.054,1.054,0,0,1,0-2.108h75.394a1.055,1.055,0,0,1,1.054,1.056Z" fill="#daedec"/>
    <path id="Trazado_3315" data-name="Trazado 3315" d="M529.6,2539.587a1.055,1.055,0,0,1-1.054,1.055H453.155a1.055,1.055,0,0,1,0-2.109h75.394a1.055,1.055,0,0,1,1.054,1.054Z" fill="#daedec"/>
    <path id="Trazado_3316" data-name="Trazado 3316" d="M505.838,2544.108a1.054,1.054,0,0,1-1.053,1.053h-51.63a1.054,1.054,0,0,1,0-2.109h51.63a1.054,1.054,0,0,1,1.053,1.056Z" fill="#daedec"/>
    <path id="Trazado_3317" data-name="Trazado 3317" d="M430.578,2536.476a9.1,9.1,0,1,0,9.017-9.172,9.1,9.1,0,0,0-9.017,9.172Z" fill="#daedec"/>
    <path id="Trazado_3318" data-name="Trazado 3318" d="M439.4,2496.008a1.632,1.632,0,0,1-.294.027,1.36,1.36,0,0,1-1-.294l-3.648-3.152a.874.874,0,0,1-.3-.65,1.516,1.516,0,0,1,.456-1.077,1.159,1.159,0,0,1,.6-.337,1.121,1.121,0,0,1,.948.307l2.79,2.374,3.038-4.249c.01-.017,1.914-2.691,2.763-2.851a.439.439,0,0,1,.245.017.416.416,0,0,1,.253.267c.242.726-1.175,3.065-1.19,3.088l-3.715,5.927a1.419,1.419,0,0,1-.94.6Z" fill="#60c967"/>
  </g>
</svg>
