<svg xmlns="http://www.w3.org/2000/svg" width="93.917" height="89.234" viewBox="0 0 93.917 89.234">
  <g id="Grupo_8381" data-name="Grupo 8381" transform="translate(-187.626 -8377.9)">
    <path id="Trazado_2563" data-name="Trazado 2563" d="M189.172,8412.795a2.211,2.211,0,0,0-1.545,2.156v44.884a2.166,2.166,0,0,0,2.664,2.172c13.64-3.435,30.922-1.884,42.235,4.578a4.132,4.132,0,0,0,4.117,0c11.314-6.462,28.6-8.013,42.236-4.578a2.168,2.168,0,0,0,2.607-1.617,2.109,2.109,0,0,0,.056-.555v-44.884a2.211,2.211,0,0,0-1.544-2.156c-14.646-4.153-33.936-.2-45.414,7.264-11.475-7.467-30.767-11.417-45.412-7.264Z" fill="#4e3b56"/>
    <path id="Trazado_2564" data-name="Trazado 2564" d="M273.6,8407.254c-12.081-1.953-30.633,1.417-38.153,9.574a1.164,1.164,0,0,1-1.644.076c-.026-.024-.052-.049-.076-.076-7.52-8.157-26.072-11.527-38.153-9.574a2.313,2.313,0,0,0-1.933,2.29V8451.8a2.233,2.233,0,0,0,2.154,2.311c.043,0,.087,0,.13,0,5.14.166,28.565,1.109,37.8,10.616a1.186,1.186,0,0,0,1.677.043l.031-.03c9.216-9.517,32.458-10.415,37.814-10.629a2.332,2.332,0,0,0,2.284-2.312v-42.254a2.313,2.313,0,0,0-1.933-2.29Z" fill="#f7f0df"/>
    <path id="Trazado_2565" data-name="Trazado 2565" d="M247.367,8426.294a23.483,23.483,0,0,1-4.176,1.636c-.923.3-1.832-.088-1.877-.828a37.142,37.142,0,0,1-.006-5.44,1.2,1.2,0,0,1,.705-.868,22.657,22.657,0,0,1,4.607-1.74,1.187,1.187,0,0,1,1.6,1.056c.005,1.484.005,3.276-.087,4.85a1.963,1.963,0,0,1-.767,1.336Z" fill="#ff736c"/>
    <path id="Trazado_2566" data-name="Trazado 2566" d="M208.762,8446.221a32.245,32.245,0,0,1-3.8-.509,1.236,1.236,0,0,1-1.051-1.167c-.109-1.95-.036-5.911.081-7.868a1.139,1.139,0,0,1,1.133-1.144h.025a20.441,20.441,0,0,1,4.215.641,1.16,1.16,0,0,1,.828,1.138c-.02,1.953.033,5.854-.081,7.809a1.169,1.169,0,0,1-1.22,1.115,1.007,1.007,0,0,1-.133-.015Z" fill="#ff736c"/>
    <g id="Grupo_8380" data-name="Grupo 8380">
      <path id="Trazado_2567" data-name="Trazado 2567" d="M253.5,8418.543a.875.875,0,0,1-.216-1.724,42.082,42.082,0,0,1,11.124-1.47.877.877,0,0,1,.846.9.844.844,0,0,1-.841.848l-.064,0a41.1,41.1,0,0,0-10.632,1.416.778.778,0,0,1-.217.027Z" fill="#ff9e88"/>
      <path id="Trazado_2568" data-name="Trazado 2568" d="M253.5,8423.656a.876.876,0,0,1-.216-1.726,42.108,42.108,0,0,1,11.123-1.469.876.876,0,0,1,.846.9.843.843,0,0,1-.837.848.527.527,0,0,1-.068,0,41.04,41.04,0,0,0-10.634,1.415.837.837,0,0,1-.214.029Z" fill="#ff9e88"/>
      <path id="Trazado_2569" data-name="Trazado 2569" d="M241.215,8436.471a.876.876,0,0,1-.454-1.625c5.956-3.6,15.695-6.043,23.635-5.921a.876.876,0,0,1-.011,1.752h-.012c-7.673-.111-17.006,2.226-22.706,5.668a.88.88,0,0,1-.452.126Z" fill="#ff9e88"/>
      <path id="Trazado_2570" data-name="Trazado 2570" d="M241.893,8444.319a.876.876,0,0,1-.444-1.63c6.695-3.93,18.475-6.53,23.066-5.825a.875.875,0,0,1-.2,1.739c-.022,0-.043,0-.064-.009-3.871-.6-15.227,1.681-21.913,5.605a.871.871,0,0,1-.446.119Z" fill="#ff9e88"/>
      <path id="Trazado_2571" data-name="Trazado 2571" d="M241.553,8452.167a.876.876,0,0,1-.444-1.631c6.694-3.929,18.47-6.529,23.064-5.825a.876.876,0,1,1-.2,1.74l-.064-.01c-3.87-.595-15.226,1.68-21.912,5.605a.881.881,0,0,1-.445.12Z" fill="#ff9e88"/>
      <path id="Trazado_2572" data-name="Trazado 2572" d="M227.961,8436.471a.867.867,0,0,1-.472-.139c-4.517-2.9-14.681-5.616-23.644-6.323a.876.876,0,0,1,.138-1.747c8.03.636,19.006,3.1,24.452,6.6a.876.876,0,0,1-.474,1.612Z" fill="#ff9e88"/>
      <path id="Trazado_2573" data-name="Trazado 2573" d="M227.278,8444.319a.87.87,0,0,1-.442-.12,49.2,49.2,0,0,0-14.356-4.992.876.876,0,0,1,.271-1.731c.021,0,.042.009.063.013a50.224,50.224,0,0,1,14.913,5.2.876.876,0,0,1-.445,1.631Z" fill="#ff9e88"/>
      <path id="Trazado_2574" data-name="Trazado 2574" d="M227.62,8452.167a.881.881,0,0,1-.443-.12c-4.252-2.5-10.377-4.25-14.69-5.058a.876.876,0,1,1,.323-1.723c4.459.834,10.808,2.658,15.255,5.27a.876.876,0,0,1-.444,1.631Z" fill="#ff9e88"/>
    </g>
    <path id="Trazado_2575" data-name="Trazado 2575" d="M242.309,8417.013v0h0Z" fill="#4e3b56"/>
    <path id="Trazado_2576" data-name="Trazado 2576" d="M234.558,8465.434a.865.865,0,0,1-.875-.855v-46.753a.876.876,0,1,1,1.751,0v46.753A.866.866,0,0,1,234.558,8465.434Z" fill="#f9c7ac"/>
    <path id="Trazado_2577" data-name="Trazado 2577" d="M227.961,8429.093a.884.884,0,0,1-.438-.119,48.9,48.9,0,0,0-23.588-6.131h-.018a.876.876,0,0,1,.017-1.752,50.741,50.741,0,0,1,24.47,6.371.875.875,0,0,1-.438,1.633Z" fill="#ff9e88"/>
    <path id="Trazado_2578" data-name="Trazado 2578" d="M219.852,8419.066a.888.888,0,0,1-.443-.045c-3.214-1.206-10-2.755-15.015-2.419a.877.877,0,1,1-.118-1.751c5.575-.373,12.619,1.351,15.749,2.526a.876.876,0,0,1-.175,1.686Z" fill="#ff9e88"/>
    <path id="Trazado_2579" data-name="Trazado 2579" d="M234.723,8377.9a16.513,16.513,0,0,0-12.275,27.745,16.457,16.457,0,0,1,4.532,11.18l0,.788a18.22,18.22,0,0,0,15.144,0v-.788a16,16,0,0,1,4.4-11.036,16.511,16.511,0,0,0-11.791-27.889Z" fill="#ffc639"/>
    <path id="Trazado_2580" data-name="Trazado 2580" d="M234.549,8419.094a.875.875,0,0,1-.876-.876v-9.411a.876.876,0,0,1,1.752,0v9.411a.876.876,0,0,1-.876.876Z" fill="#fff"/>
    <circle id="Elipse_37" data-name="Elipse 37" cx="0.932" cy="0.932" r="0.932" transform="translate(233.615 8403.271)" fill="#fff"/>
    <path id="Trazado_2581" data-name="Trazado 2581" d="M239.5,8401.507h-.006c-2.431,0-3.84-1.226-4.9-3.207a5.231,5.231,0,0,1-4.985,3.207H229.6a5.171,5.171,0,0,1-3.759-1.541,5.273,5.273,0,0,1-1.459-3.7v-.019a4.72,4.72,0,0,1,4.432-4.991,4.907,4.907,0,0,1,.536,0h.006a5.745,5.745,0,0,1,5.243,2.938,5.787,5.787,0,0,1,5.146-2.938h.006a4.721,4.721,0,0,1,4.97,4.456,4.793,4.793,0,0,1,0,.536,5.3,5.3,0,0,1-1.459,3.723,5.169,5.169,0,0,1-3.759,1.539Zm-3.8-5.692a.89.89,0,0,0-.011.73c1.039,2.382,2.06,3.213,3.812,3.214a3.388,3.388,0,0,0,2.51-1.012,3.536,3.536,0,0,0,.963-2.484,2.977,2.977,0,0,0-3.217-3.263h0a4.285,4.285,0,0,0-4.052,2.811Zm-9.563.451a3.535,3.535,0,0,0,.964,2.484,3.383,3.383,0,0,0,2.5,1.008c1.863,0,2.861-.8,3.891-3.228a.888.888,0,0,0-.008-.711,4.225,4.225,0,0,0-4.132-2.816h-.005a2.971,2.971,0,0,0-3.218,2.7,3.007,3.007,0,0,0,0,.545Z" fill="#fff"/>
    <path id="Trazado_2582" data-name="Trazado 2582" d="M234.546,8418.218a23.85,23.85,0,0,1-7.566-1.256h0a7.576,7.576,0,1,0,15.143.493c.006-.162.006-.325,0-.488a23.947,23.947,0,0,1-7.573,1.251Z" fill="#4e3b56"/>
  </g>
</svg>
