<svg xmlns="http://www.w3.org/2000/svg" width="88.037" height="89.613" viewBox="0 0 88.037 89.613">
  <g id="Purse" transform="translate(-190.566 -8989.774)">
    <path id="Trazado_2610" data-name="Trazado 2610" d="M237.029,8989.776a15.357,15.357,0,0,0-8.45,2.361c-1.9,1.171-3.572,3.628-4.938,5.522-1.883,2.607-4.126,7.034-4.534,10.478.838.085,4.855.479,5.683.539.127-.836,2.4-8.071,6.38-11.873a9.135,9.135,0,0,1,5.66-2.462c5.853.137,10.8,6.7,10.723,14.978.775.048,4.3.109,4.747.139l-.111-1.6C251.3,8998.916,247.639,8990.286,237.029,8989.776Z" fill="#ffb38d"/>
    <path id="Trazado_2611" data-name="Trazado 2611" d="M237.187,9037.492c4.132,7.146-.182,17.429-14.9,21.693a3.709,3.709,0,0,1-2.769-.278c-12.592-6.646-14.426-16.614-9.65-22.764,3.087-3.974,11.076-4.569,13.211.754C226.286,9031.768,234.611,9033.033,237.187,9037.492Z" fill="#ff8878"/>
    <path id="Trazado_2612" data-name="Trazado 2612" d="M252.185,9007.86h-.012c-.45-.024-31.141-2.105-31.155-2.089-2.379-.223-7.656-.69-8.418-.8-2.528-.365-8.2,2.261-8.556,3.172,1.408.4,3.61,3.519,10.124,5.476,8.249,2.479,19.749,2.841,28.508,2.366A67.885,67.885,0,0,0,255,9014.3s9.233-3.752,7.8-6.159C260.121,9008.14,256.414,9008.043,252.185,9007.86Z" fill="#ff746a"/>
    <path id="Trazado_2613" data-name="Trazado 2613" d="M254.72,9078.522a6.9,6.9,0,0,1-.941-1.674,14.771,14.771,0,0,1-.61-1.727c-3.876-13.414-.919-53.3,1.573-61.562v-.875h-.487c-.222,0-.443.012-.654.012-3.577.055-7,.011-10.655-.111a47.293,47.293,0,0,1-5.339-.177c-5.183-.244-9.692-.609-14.067-1.075a1.324,1.324,0,0,1-.232-.022q-2.127-.215-4.121-.465a37.236,37.236,0,0,1-4.995-.665,87.507,87.507,0,0,1-10.146-2.038c-4.718,6.07-13.524,32.267-13.48,54.573.011,5,2.526,8.917,7.4,10.356,13.048,3.866,41.437,6.391,55.946,6.313h.023a13.161,13.161,0,0,0,1.628-.11,2.938,2.938,0,0,1-.842-.753Z" fill="#fceaca"/>
    <path id="Trazado_2614" data-name="Trazado 2614" d="M262.419,9010.178a1.107,1.107,0,0,1-1.047-.747c-21.234-1.7-46.617-3.629-49.2-3.525a1.108,1.108,0,1,1-.083-2.215h.258c4.788,0,42.2,3.065,49.8,3.674a2.025,2.025,0,0,1,1.512.808,1.671,1.671,0,0,1-.052,1.551c-.2.371-.788.455-1.181.455Z" fill="#ffb38d"/>
    <path id="Trazado_2615" data-name="Trazado 2615" d="M276.706,9066.892c-3.987,4.242-4.485,2.271-7.332,5.117a26.221,26.221,0,0,1-12.738,7.111c-.354.055-.72.111-1.074.155a2.938,2.938,0,0,1-.842-.753,6.558,6.558,0,0,1-.941-1.674,11.985,11.985,0,0,1-.61-1.727c-3.91-13.392-1.03-53.078,1.451-61.341l.122-1.1h.155v-.011s.355-.078.92-.232c1.827-.521,5.859-1.973,6.745-4.818,2.082,0,4.32,3.91,5.217,6.457,4.275,12.151,15.2,46.122,8.927,52.812Z" fill="#ffd3b6"/>
    <path id="Trazado_2616" data-name="Trazado 2616" d="M222.288,9059.184c14.717-4.266,19.031-14.544,14.9-21.693-2.576-4.46-10.9-5.725-14.11-.6-2.138-5.322-10.123-4.728-13.21-.754-4.776,6.149-2.942,16.116,9.649,22.765A3.726,3.726,0,0,0,222.288,9059.184Z" fill="#ff8878"/>
    <path id="Trazado_2617" data-name="Trazado 2617" d="M242.99,9012.264c3.781.121,7.584.157,11.3.1C250.489,9012.421,246.868,9012.4,242.99,9012.264Z" fill="#ffe5d2"/>
    <path id="Trazado_2618" data-name="Trazado 2618" d="M204.552,9008.9a1.108,1.108,0,0,1-.615-2.028c1.37-.915,4.907-3.056,8.148-3.178a1.084,1.084,0,0,1,1.148,1.019l0,.046a1.108,1.108,0,0,1-1.064,1.149c-2.754.1-6.058,2.174-7.006,2.806a1.1,1.1,0,0,1-.613.187Z" fill="#ffd3b6"/>
    <path id="Trazado_2619" data-name="Trazado 2619" d="M254.861,9013.792a1.143,1.143,0,0,1-1.123-1.075,1.16,1.16,0,0,1,1.031-1.264c1.531-.132,5.759-.967,6.926-3.212a1.106,1.106,0,0,1,1.485-.5l.044.022a1.194,1.194,0,0,1,.457,1.587c-1.955,3.759-8.041,4.378-8.728,4.432a.457.457,0,0,1-.092.007Z" fill="#ffd3b6"/>
    <path id="Trazado_2620" data-name="Trazado 2620" d="M256.636,9079.12c-.354.055-.72.111-1.074.155a13.161,13.161,0,0,1-1.628.11c-6.1-9.979-2.714-56.954-.333-66.689.022-.1.045-.2.067-.288a1.107,1.107,0,0,1,1.347-.8h0a1.126,1.126,0,0,1,.8.831,1.188,1.188,0,0,1-.011.521c-3.19,12.161-5.173,62.691.7,66.047a.6.6,0,0,1,.133.111Z" fill="#fff"/>
    <path id="Trazado_2621" data-name="Trazado 2621" d="M254.737,9013.792c-.007,0-.126,0-.333-.014-5.152-.243-9.207-.389-11.418-.407-10.752-.095-25.608-1.741-29.906-2.243a36.522,36.522,0,0,1-8.834-1.73,1.428,1.428,0,0,1-.309-2.527,1.107,1.107,0,0,1,1.536.306,1.1,1.1,0,0,1,.156.358,37.266,37.266,0,0,0,7.7,1.394c4.27.5,19.027,2.134,29.669,2.229,2.27.02,6.248.162,11.5.41l.272.012a1.108,1.108,0,1,1-.038,2.215Z" fill="#fff"/>
    <path id="Trazado_2622" data-name="Trazado 2622" d="M243.033,9007.41a1.863,1.863,0,0,0,0-.279c-.243-6.611-2.82-11.241-9.71-12.372-.378-.061-.767-.122-1.18-.157a7.467,7.467,0,0,0-.753-.072,14.374,14.374,0,0,0-4.776.461,13.15,13.15,0,0,0-1.883.665l-.012.012c-4.133,1.823-6.988,5.6-8.823,9.7a31.649,31.649,0,0,0-1.7,4.812,30.935,30.935,0,0,0-.984,5.676,1.66,1.66,0,0,0,1.329,1.737c2.114.45,3.343-.546,3.463-1.676.012-.062.012-.134.025-.222a49.163,49.163,0,0,1,1.167-4.85v-.012c.413-1.483.851-2.906,1.154-3.656.025-.048.049-.109.073-.158.158-.352.547-1.13.56-1.153a12.246,12.246,0,0,1,3.232-4.012,8.583,8.583,0,0,1,4.12-1.737c.243-.036.486-.062.729-.085a9.832,9.832,0,0,1,1.459,0c5.553.352,6.867,2.419,7.2,7.061v.037a30.892,30.892,0,0,1-.1,5.25v.03c-.183,1.872-.34,4.011-.657,6.016-.157,1.045.657,2.042,2.2,2.236a3.277,3.277,0,0,0,.705.048,1.891,1.891,0,0,0,.45-.061,1.234,1.234,0,0,0,.3-.072,1.411,1.411,0,0,0,.244-.085,1.883,1.883,0,0,0,1.313-1.3,42.7,42.7,0,0,0,.775-6.6c.113-2.2.125-4.2.077-5.181Z" fill="#fceaca"/>
  </g>
</svg>
