<svg xmlns="http://www.w3.org/2000/svg" width="77.325" height="91.319" viewBox="0 0 77.325 91.319">
  <g id="Grupo_8389" data-name="Grupo 8389" transform="translate(-195.12 -8835.104)">
    <g id="Send_message" data-name="Send message">
      <path id="Trazado_2602" data-name="Trazado 2602" d="M271.527,8868.362c2.151,3.106.659,7.819-5.947,10.382a1.891,1.891,0,0,1-1.338,0c-6.606-2.562-8.088-7.275-5.947-10.382,1.367-1.97,5.325-2.409,6.616.057C266.211,8865.953,270.16,8866.393,271.527,8868.362Z" fill="#ff8878"/>
      <path id="Trazado_2603" data-name="Trazado 2603" d="M270.1,8851.283c2.031,1.51,2.1,4.825-1.541,7.874a1.28,1.28,0,0,1-.85.288c-4.747-.205-6.7-2.879-6.012-5.313.444-1.546,2.862-2.677,4.214-1.385.3-1.849,2.9-2.42,4.189-1.464Z" fill="#ffac95"/>
      <rect id="Rectángulo_3120" data-name="Rectángulo 3120" width="68.553" height="47.117" rx="7.288" transform="matrix(0.253, -0.968, 0.968, 0.253, 195.12, 8901.429)" fill="#799dc9"/>
      <path id="Trazado_2604" data-name="Trazado 2604" d="M215.309,8845.829l35,9.146-12.785,48.917-35-9.146Z" fill="#ecf6ff"/>
      <path id="Trazado_2605" data-name="Trazado 2605" d="M234.9,8868.585c-2.079-1.1-12.658-1.247-14.443-.255-2.456,1.368-.394,5.362-.394,5.362s6.116-2.431,8.821-3.981C228.911,8869.693,234.938,8868.6,234.9,8868.585Z" fill="#f9bb48"/>
      <path id="Trazado_2606" data-name="Trazado 2606" d="M234.991,8868.639l-.092-.053a1.769,1.769,0,0,0-.858-.17c-5.834.382-13.246,3.9-13.979,5.277-.9,1.655,3.441,6.862,5.478,6.514,2.3-.382,10.275-6.172,10.3-10.154A1.581,1.581,0,0,0,234.991,8868.639Z" fill="#ffcf6e"/>
    </g>
    <g id="Send_message-2" data-name="Send message-2">
      <path id="Trazado_2607" data-name="Trazado 2607" d="M246.74,8896.76a8.2,8.2,0,0,1,3.774,1.065c.739.462,4.258,2.493,6.329,9.767,1.959,6.9-1.453,14.493-9.81,17.735-8.954,3.479-18.88-2.124-22.976-5.725-3.871-3.405-10.27-5.095-10.675-8.906a4.046,4.046,0,0,1,.2-1.754c1.662-5.132,7.385-2.585,10.4-1.354,2.3.93,4.763,1.435,5.7-.863a7.159,7.159,0,0,0,.4-3.025c-.189-4.808-4.6-20.1.657-23.43,2.082-1.316,4.836-.246,5.053,1.974.294,3.1,1.611,9.295,2.527,13.394a5.393,5.393,0,0,1,1.526-.806,6.446,6.446,0,0,1,5.249.369,4.412,4.412,0,0,1,1.642,1.56Z" fill="#ffb38d"/>
      <g id="Grupo_8388" data-name="Grupo 8388">
        <path id="Trazado_2608" data-name="Trazado 2608" d="M239.6,8900.616h-.006a.923.923,0,0,1-.917-.93,24.909,24.909,0,0,0-.461-4.614.923.923,0,1,1,1.805-.388,26.456,26.456,0,0,1,.5,5.014.924.924,0,0,1-.924.918Z" fill="#f4725d"/>
        <path id="Trazado_2609" data-name="Trazado 2609" d="M247.382,8900.02h-.038a.922.922,0,0,1-.885-.96c.029-.737-.012-2.562-1.042-3.491a.924.924,0,1,1,1.238-1.371h0c1.551,1.4,1.7,3.691,1.648,4.937a.923.923,0,0,1-.921.886Z" fill="#f4725d"/>
      </g>
    </g>
  </g>
</svg>
