<svg xmlns="http://www.w3.org/2000/svg" width="119.49" height="117.39" viewBox="0 0 119.49 117.39">
  <g id="Grupo_8261" data-name="Grupo 8261" transform="translate(-188.316 -12816.441)">
    <path id="Trazado_2027" data-name="Trazado 2027" d="M245.494,12819.475a57.178,57.178,0,1,1-57.178,57.179,57.179,57.179,0,0,1,57.178-57.179Z" fill="#97b6f7"/>
    <path id="Trazado_2028" data-name="Trazado 2028" d="M201.618,12852.693h-8.05a56.951,56.951,0,0,0-5.252,23.96q0,1.523.08,3.028h13.222v-26.988Z" fill="#385497"/>
    <path id="Trazado_2029" data-name="Trazado 2029" d="M285.256,12894.449H280.24v18.874h5.016a2.341,2.341,0,0,0,2.334-2.334v-14.207a2.34,2.34,0,0,0-2.334-2.333Z" fill="#373775"/>
    <path id="Trazado_2030" data-name="Trazado 2030" d="M254.061,12893.571v20.629l19.308,11.521v-43.67l-19.308,11.521Z" fill="#e7f1fc"/>
    <path id="Trazado_2031" data-name="Trazado 2031" d="M280.473,12929.412a1.17,1.17,0,0,1-1.167,1.167h-5a1.17,1.17,0,0,1-1.166-1.167v-51.053a1.17,1.17,0,0,1,1.166-1.167h5a1.17,1.17,0,0,1,1.167,1.167v51.053Z" fill="#e72d47"/>
    <path id="Trazado_2032" data-name="Trazado 2032" d="M277.144,12929.412v-51.053a1.17,1.17,0,0,1,1.167-1.167H274.3a1.17,1.17,0,0,0-1.167,1.167v51.054a1.17,1.17,0,0,0,1.167,1.166h4.009a1.17,1.17,0,0,1-1.167-1.167Z" fill="#cb1b28"/>
    <path id="Trazado_2033" data-name="Trazado 2033" d="M232.872,12895.242h-5.41a1.17,1.17,0,0,0-1.167,1.167v14.952a1.17,1.17,0,0,0,1.167,1.167h5.41v-17.286Z" fill="#e7f1fc"/>
    <path id="Trazado_2034" data-name="Trazado 2034" d="M229.682,12911.362v-14.953a1.17,1.17,0,0,1,1.167-1.166h-3.387a1.17,1.17,0,0,0-1.167,1.166v14.953a1.171,1.171,0,0,0,1.167,1.167h3.387a1.171,1.171,0,0,1-1.167-1.167Z" fill="#cee4f7"/>
    <path id="Trazado_2035" data-name="Trazado 2035" d="M254.294,12914.312a1.17,1.17,0,0,1-1.167,1.167H233.806a1.17,1.17,0,0,1-1.167-1.167v-20.854a1.17,1.17,0,0,1,1.167-1.167h19.321a1.17,1.17,0,0,1,1.167,1.167v20.854Z" fill="#e72d47"/>
    <path id="Trazado_2036" data-name="Trazado 2036" d="M237.27,12914.312v-20.854a1.17,1.17,0,0,1,1.167-1.167h-4.631a1.17,1.17,0,0,0-1.167,1.167v20.854a1.17,1.17,0,0,0,1.167,1.167h4.631a1.17,1.17,0,0,1-1.167-1.167Z" fill="#cb1b28"/>
    <path id="Trazado_2037" data-name="Trazado 2037" d="M301.394,12835.261a1.17,1.17,0,0,0-1.167-1.166H268.383a1.17,1.17,0,0,0-1.167,1.166v22.161a1.17,1.17,0,0,0,1.167,1.167h9.612a2.633,2.633,0,0,1,1.866.936l3.745,5.01a.827.827,0,0,0,1.4,0l3.745-5.01a2.631,2.631,0,0,1,1.866-.936h9.612a1.17,1.17,0,0,0,1.167-1.167v-22.161Z" fill="#00abdb"/>
    <path id="Trazado_2038" data-name="Trazado 2038" d="M271.847,12857.422v-22.161a1.17,1.17,0,0,1,1.167-1.166h-4.631a1.17,1.17,0,0,0-1.167,1.166v22.161a1.17,1.17,0,0,0,1.167,1.167h4.631a1.17,1.17,0,0,1-1.167-1.167Z" fill="#008fc8"/>
    <path id="Trazado_2039" data-name="Trazado 2039" d="M294.3,12842.753h-20a1.75,1.75,0,1,1,0-3.5h20a1.75,1.75,0,0,1,0,3.5Z" fill="#fff"/>
    <path id="Trazado_2040" data-name="Trazado 2040" d="M294.3,12848.179h-20a1.75,1.75,0,1,1,0-3.5h20a1.75,1.75,0,0,1,0,3.5Z" fill="#fff"/>
    <path id="Trazado_2041" data-name="Trazado 2041" d="M284.345,12853.606H274.307a1.75,1.75,0,1,1,0-3.5h10.038a1.75,1.75,0,0,1,0,3.5Z" fill="#fff"/>
    <path id="Trazado_2042" data-name="Trazado 2042" d="M250.864,12816.442a12.978,12.978,0,1,1-12.977,12.978,12.977,12.977,0,0,1,12.977-12.978Z" fill="#e72d47"/>
    <path id="Trazado_2043" data-name="Trazado 2043" d="M242.517,12829.419a12.977,12.977,0,0,1,10.662-12.767,12.978,12.978,0,1,0,0,25.533,12.977,12.977,0,0,1-10.662-12.767Z" fill="#cb1b28"/>
    <path id="Trazado_2044" data-name="Trazado 2044" d="M250.84,12836.563a.78.78,0,0,1-.558-.233l-6.131-6.182a3.98,3.98,0,0,1,0-5.589,3.9,3.9,0,0,1,5.542,0l1.169,1.18,1.17-1.18a3.9,3.9,0,0,1,5.542,0,3.976,3.976,0,0,1,0,5.589l-6.178,6.183a.778.778,0,0,1-.555.232Z" fill="#fff"/>
    <path id="Trazado_2045" data-name="Trazado 2045" d="M206.326,12901.374a.662.662,0,0,1-.471-.2l-5.174-5.218a3.357,3.357,0,0,1,0-4.717,3.286,3.286,0,0,1,4.677,0l.987,1,.987-1a3.287,3.287,0,0,1,4.678,0,3.357,3.357,0,0,1,0,4.717l-5.215,5.219a.657.657,0,0,1-.469.2Z" fill="#e72d47"/>
    <path id="Trazado_2046" data-name="Trazado 2046" d="M203.289,12894.871a3.35,3.35,0,0,1-.108-4.6c-.054,0-.107-.009-.162-.009a3.271,3.271,0,0,0-2.338.978,3.357,3.357,0,0,0,0,4.717l5.174,5.217a.661.661,0,0,0,.94,0l1.381-1.381-4.887-4.927Z" fill="#cb1b28"/>
    <path id="Trazado_2047" data-name="Trazado 2047" d="M231.765,12881.259v-3.221a3.27,3.27,0,0,1,3.267-3.267h.755a.234.234,0,1,0,0-.468,3.27,3.27,0,0,1-3.267-3.267v-3.222a3.271,3.271,0,0,1,3.267-3.268.233.233,0,1,0,0-.467,3.27,3.27,0,0,1-3.267-3.267v-3.223a3.27,3.27,0,0,1,3.267-3.267.233.233,0,1,0,0-.467h-1.442a3.271,3.271,0,0,1-3.267-3.268v-3.222a3.27,3.27,0,0,1,2.679-3.212v-12.541a3.511,3.511,0,0,0-3.5-3.5h-5.445a4.136,4.136,0,0,0-3.973,3.469l-2.194,16.093c-.259,1.9-1.632,3.456-3.055,3.468v30.341h16.187c-.005-.075-.011-.149-.011-.227Z" fill="#fddab7"/>
    <path id="Trazado_2048" data-name="Trazado 2048" d="M230.256,12828.115h-5.445a4.136,4.136,0,0,0-3.973,3.469l-2.194,16.093c-.259,1.9-1.631,3.456-3.055,3.468v4.633H220.2c1.429,0,2.811-1.562,3.071-3.47l2.193-16.093a4.138,4.138,0,0,1,3.974-3.469h4.315v-1.13a3.511,3.511,0,0,0-3.5-3.5Z" fill="#f9be87"/>
    <path id="Trazado_2049" data-name="Trazado 2049" d="M235.032,12884.76a3.511,3.511,0,0,1-3.5-3.5v-3.221a3.512,3.512,0,0,1,3.5-3.5h18.985a3.511,3.511,0,0,1,3.5,3.5v3.221a3.511,3.511,0,0,1-3.5,3.5Z" fill="#fddab7"/>
    <path id="Trazado_2050" data-name="Trazado 2050" d="M202.552,12885.283a1.17,1.17,0,0,1-1.167-1.167v-35.858a1.17,1.17,0,0,1,1.167-1.167h12.1a1.17,1.17,0,0,1,1.166,1.167v35.858a1.17,1.17,0,0,1-1.166,1.167Z" fill="#373775"/>
    <path id="Trazado_2051" data-name="Trazado 2051" d="M206.016,12884.116v-35.858a1.17,1.17,0,0,1,1.167-1.167h-4.631a1.17,1.17,0,0,0-1.167,1.167v35.858a1.17,1.17,0,0,0,1.167,1.167h4.631a1.17,1.17,0,0,1-1.167-1.167Z" fill="#322d60"/>
    <path id="Trazado_2052" data-name="Trazado 2052" d="M208.6,12849.683a3.124,3.124,0,1,1-3.124,3.124,3.124,3.124,0,0,1,3.124-3.124Z" fill="#a2b8e0"/>
    <path id="Trazado_2053" data-name="Trazado 2053" d="M234.345,12854.092a3.511,3.511,0,0,1-3.5-3.5v-3.222a3.511,3.511,0,0,1,3.5-3.5h19.672a3.511,3.511,0,0,1,3.5,3.5v3.222a3.511,3.511,0,0,1-3.5,3.5Z" fill="#fddab7"/>
    <path id="Trazado_2054" data-name="Trazado 2054" d="M235.787,12864.315a3.511,3.511,0,0,1-3.5-3.5v-3.223a3.511,3.511,0,0,1,3.5-3.5h19.082a3.511,3.511,0,0,1,3.5,3.5v3.223a3.511,3.511,0,0,1-3.5,3.5Z" fill="#fddab7"/>
    <path id="Trazado_2055" data-name="Trazado 2055" d="M235.787,12874.538a3.512,3.512,0,0,1-3.5-3.5v-3.221a3.511,3.511,0,0,1,3.5-3.5h19.082a3.51,3.51,0,0,1,3.5,3.5v3.221a3.511,3.511,0,0,1-3.5,3.5Z" fill="#fddab7"/>
    <path id="Trazado_2056" data-name="Trazado 2056" d="M238.636,12881.156a3.511,3.511,0,0,1-3.5-3.5v-3.118h-.1a3.511,3.511,0,0,0-3.5,3.5v3.222a3.511,3.511,0,0,0,3.5,3.5h18.985a3.511,3.511,0,0,0,3.5-3.5v-.1H238.636Z" fill="#f9be87"/>
    <path id="Trazado_2057" data-name="Trazado 2057" d="M237.949,12850.488a3.511,3.511,0,0,1-3.5-3.5v-3.118h-.1a3.51,3.51,0,0,0-3.5,3.5v3.222a3.511,3.511,0,0,0,3.5,3.5h19.672a3.511,3.511,0,0,0,3.5-3.5v-.1Z" fill="#f9be87"/>
    <path id="Trazado_2058" data-name="Trazado 2058" d="M239.391,12860.711a3.511,3.511,0,0,1-3.5-3.5v-3.118h-.1a3.51,3.51,0,0,0-3.5,3.5v3.223a3.511,3.511,0,0,0,3.5,3.5H254.87a3.511,3.511,0,0,0,3.5-3.5v-.1Z" fill="#f9be87"/>
    <path id="Trazado_2059" data-name="Trazado 2059" d="M239.391,12870.934a3.511,3.511,0,0,1-3.5-3.5v-3.117h-.1a3.51,3.51,0,0,0-3.5,3.5v3.221a3.511,3.511,0,0,0,3.5,3.5H254.87a3.511,3.511,0,0,0,3.5-3.5v-.1Z" fill="#f9be87"/>
    <path id="Trazado_2060" data-name="Trazado 2060" d="M216.784,12906.327H195.907a.466.466,0,0,0-.464.466v13.4a.467.467,0,0,0,.464.466h20.877a.466.466,0,0,0,.464-.466v-13.4a.465.465,0,0,0-.464-.466Z" fill="#f6a01a"/>
    <path id="Trazado_2061" data-name="Trazado 2061" d="M200.074,12920.189v-10.2l-4.519-3.493a.452.452,0,0,1,.07-.067.462.462,0,0,0-.182.366v13.4a.467.467,0,0,0,.464.467h4.631a.467.467,0,0,1-.464-.466Z" fill="#f1881b"/>
    <path id="Trazado_2062" data-name="Trazado 2062" d="M216.784,12906.327H195.907a.458.458,0,0,0-.352.166l10.423,8.056a.635.635,0,0,0,.735,0l10.423-8.056a.456.456,0,0,0-.352-.166Z" fill="#fdc300"/>
    <path id="Trazado_2063" data-name="Trazado 2063" d="M307.342,12869.571H286.465a.466.466,0,0,0-.464.466v13.4a.466.466,0,0,0,.464.467h20.877a.466.466,0,0,0,.464-.467v-13.4a.467.467,0,0,0-.464-.466Z" fill="#f6a01a"/>
    <path id="Trazado_2064" data-name="Trazado 2064" d="M290.632,12883.433v-10.2l-4.519-3.492a.458.458,0,0,1,.07-.068.465.465,0,0,0-.182.367v13.4a.466.466,0,0,0,.464.467H291.1a.466.466,0,0,1-.464-.467Z" fill="#f1881b"/>
    <path id="Trazado_2065" data-name="Trazado 2065" d="M307.342,12869.571H286.465a.459.459,0,0,0-.352.167l10.423,8.055a.632.632,0,0,0,.735,0l10.423-8.055a.459.459,0,0,0-.352-.167Z" fill="#fdc300"/>
  </g>
</svg>
