<svg xmlns="http://www.w3.org/2000/svg" width="71.755" height="89.715" viewBox="0 0 71.755 89.715">
  <g id="Grupo_8371" data-name="Grupo 8371" transform="translate(-198.707 -7765.596)">
    <g id="Grupo_8370" data-name="Grupo 8370">
      <path id="Trazado_2516" data-name="Trazado 2516" d="M228.3,7843.3c-15.983.28-23.1-7.062-24.516-14.124a8.473,8.473,0,0,0-2.526-4.536,7.483,7.483,0,0,1-2.527-4.7c-.351-3.954,3.61-5.785,3.826-5.885,9.468-8.139,18.528-38.673,27-42.664,10.65-4.247,19.177,3.543,21.9,12.783,2.392,9.617.823,14.2,0,18.839C249.422,7814.448,246.367,7843.828,228.3,7843.3Z" fill="#66425e"/>
      <path id="Trazado_2517" data-name="Trazado 2517" d="M225.169,7808.065c-1.579.115-3.258.388-5.411.675a20.313,20.313,0,0,1-4.141-.28,16.367,16.367,0,0,1,2.526-5.461,29.562,29.562,0,0,0,4.529-8.527c1.794,4.859,5.425,9.582,8.985,10.651.7.215,1.565.531,2.39.789a15.843,15.843,0,0,1-.122,3.582,19.7,19.7,0,0,0-8.756-1.429Z" fill="#66425e"/>
      <path id="Trazado_2518" data-name="Trazado 2518" d="M255.563,7812.637c-.287,1.278-.61,2.6-.969,3.919l-.007.007c-.208-.581-11.124-5.842-12.05-6.675s-1.579-3.825-1.471-5.411v-.007c2.368-1.127,4.155-3.18,5.813-6.3a23.644,23.644,0,0,0,9.531,9.905c-.186,1.284-.43,2.641-.739,4.055a1.222,1.222,0,0,0-.108.509Z" fill="#66425e"/>
    </g>
    <path id="Trazado_2519" data-name="Trazado 2519" d="M256.747,7804.161a31.26,31.26,0,0,1-.337,3.912,21.317,21.317,0,0,1-4.119-2.893,24.406,24.406,0,0,1-3.9-4.507,24.752,24.752,0,0,1-1.507-2.5,24.367,24.367,0,0,1-1.665-3.954c-1.119-3.488-1.816-7.134-3.007-10.586a29.092,29.092,0,0,0-1.435-3.466,10.416,10.416,0,0,0-4.479-4.981c-2.052-.983-5.641-.818-7.012,1-3.035,1.112-4.987,9.186-5.6,13.428a27.106,27.106,0,0,1-1.012,4.858,29.562,29.562,0,0,1-4.529,8.527,16.367,16.367,0,0,0-2.526,5.461,19.9,19.9,0,0,0-.352,8.921.978.978,0,0,1,.022.345c-.539-.044-1.063-.094-1.572-.158-.948-.926-2.046-2.929-2.426-6.237-1.349-11.684,5.433-18.423,6.108-25.952.128-2.838,4.865-13.141,9.05-16.248,5.333-3.96,11.928-4.924,17.138-1.184,4.809,3.445,8.691,11.332,9.646,17.956.481,3.366,1.708,7.493,2.569,11.311a35.959,35.959,0,0,1,.926,5.627v.007a13.076,13.076,0,0,1,.021,1.313Z" fill="#7f576e"/>
    <path id="Trazado_2520" data-name="Trazado 2520" d="M264.843,7818.2c-.007.6-1.923,22.012-6.753,22.22-5.1.222-4.909-7.981-8.627-14.44a40.2,40.2,0,0,1-1.357,4.055.131.131,0,0,1-.014.05c-2.167-2.088-5-6.746-6.481-11.942a25.269,25.269,0,0,0-10.5,8.21c-1.744-2.469-4.393-7.234-7.192-8.4a19.207,19.207,0,0,0-2.7,4.758h-.007s-.086-.947-.18-2.16a2.889,2.889,0,0,0-2.777-2.648c-1.027-.036-3.589-.251-4.543-.337-5.124-.589-9.014-1.83-11.16-3.517a4.236,4.236,0,0,1-1.881-3.172c-.093-3.5,9.137-11.627,13.026-16.966a5.578,5.578,0,0,0,1.02-3.61,6.017,6.017,0,0,1,2.77-5.5v-.007a9.778,9.778,0,0,1,1.83-.99,34.286,34.286,0,0,1-8.548,23.726,29.219,29.219,0,0,0,8.519,1.4c2.168-.05,4.3-.754,5.878-.869a18.276,18.276,0,0,1,6.847.8,1.608,1.608,0,0,0,2.006-1.074,1.657,1.657,0,0,0,.061-.3,1.3,1.3,0,0,0,.007-.165c0-.517-.022-1-.043-1.407.825.259,6.861-1.363,7.019-1.435a8.809,8.809,0,0,0,.086,1.679,7.3,7.3,0,0,0,1.385,3.732c.926.833,5.053-.717,7.12-.323,1.83.345,3.38,2.591,4.442,5.62.108.316.28.8.488,1.378.969,2.684,2.763,7.615,3.18,9.086.6-1.68,1.177-3.4,1.564-4.766a2.928,2.928,0,0,0-.474-2.533c-1.22-1.651-3.373-4.034-3.294-5.713.036-.172.072-.344.108-.509a1.52,1.52,0,0,1,.366-.56,2.945,2.945,0,0,0,.8-1.716,1.887,1.887,0,0,1,.552-1.291,1.62,1.62,0,0,1,.295-.216,1.244,1.244,0,0,0,.552-1.428,1.473,1.473,0,0,1,1.579-1.988.476.476,0,0,1,.187.058,5.286,5.286,0,0,1,.6.351,13.689,13.689,0,0,1,4.2,4.766,7.952,7.952,0,0,1,.639,1.471c.431,1.643-.581,4.256-.61,6.624Z" fill="#ff8d98"/>
    <path id="Trazado_2521" data-name="Trazado 2521" d="M223.684,7789.614c.61-4.242,2.562-12.316,5.6-13.428,1.371-1.823,4.967-2,7.012-1a10.481,10.481,0,0,1,4.479,4.981,29.092,29.092,0,0,1,1.435,3.466c1.191,3.452,1.888,7.1,3.007,10.586a24.367,24.367,0,0,0,1.665,3.954c-1.658,3.122-3.445,5.175-5.813,6.3v.007c-.158.072-.323.144-.488.215-1.349.553-3.33,1.6-4.392,1.651a7.231,7.231,0,0,1-2.139-.431c-.825-.258-1.694-.574-2.39-.789-3.56-1.069-7.191-5.792-8.985-10.651a27.106,27.106,0,0,0,1.012-4.858Z" fill="#ffa4a9"/>
    <path id="Trazado_2522" data-name="Trazado 2522" d="M211.655,7808.787a1.085,1.085,0,0,1-.349-.058c-.144-.043-.692-.14-.989-.192-.33-.057-.634-.112-.79-.149a1.077,1.077,0,0,1,.479-2.1l.023,0c.13.031.384.072.659.122a10.434,10.434,0,0,1,1.32.277,1.077,1.077,0,0,1-.353,2.094Z" fill="#f7617e"/>
    <path id="Trazado_2523" data-name="Trazado 2523" d="M227.478,7792.745a3.024,3.024,0,0,1-1.92-.6,2.069,2.069,0,0,1-1.321.264,1.077,1.077,0,0,1,.256-2.138h.022c-.01,0,.011-.018.034-.031a2.229,2.229,0,0,1,1.077-.336,1.7,1.7,0,0,1,1.126.443c.2.162.562.464,2.288-.042a1.076,1.076,0,1,1,.606,2.066A7.8,7.8,0,0,1,227.478,7792.745Z" fill="#66425e"/>
    <path id="Trazado_2524" data-name="Trazado 2524" d="M231.866,7799.152a.9.9,0,0,1-.415-1.693,3.5,3.5,0,0,0,.342-.215,2.315,2.315,0,0,1,2.737-.215c.039-.017.077-.039.12-.06a3.1,3.1,0,0,1,2.727-.1.9.9,0,0,1-.614,1.685h0a1.393,1.393,0,0,0-1.332.029,1.714,1.714,0,0,1-1.775.012c-.344-.207-.4-.167-.861.139a5.289,5.289,0,0,1-.517.318A.89.89,0,0,1,231.866,7799.152Z" fill="#f44770"/>
    <path id="Trazado_2525" data-name="Trazado 2525" d="M234.707,7801.5a5.093,5.093,0,0,1-.852-.072.9.9,0,0,1,.3-1.769,3.389,3.389,0,0,0,2.086-.317.9.9,0,1,1,.818,1.6l0,0A5.176,5.176,0,0,1,234.707,7801.5Z" fill="#f44770"/>
    <path id="Trazado_2526" data-name="Trazado 2526" d="M228.479,7787.231a1,1,0,0,1-.174-.017c-.215-.033-.49-.1-.806-.177-.8-.2-2.138-.521-2.778-.184a1.076,1.076,0,1,1-1.058-1.875c.017-.01.035-.019.053-.028,1.363-.718,3.127-.287,4.294-.005.25.061.468.116.638.144a1.076,1.076,0,0,1-.17,2.139Z" fill="#66425e"/>
    <path id="Trazado_2527" data-name="Trazado 2527" d="M236.438,7785.788a1.076,1.076,0,0,1-.492-2.034,16.2,16.2,0,0,1,6.212-1.2,1.078,1.078,0,1,1,.1,2.153,15.247,15.247,0,0,0-5.329.967A1.068,1.068,0,0,1,236.438,7785.788Z" fill="#66425e"/>
    <path id="Trazado_2528" data-name="Trazado 2528" d="M249.464,7827.055a1.074,1.074,0,0,1-.933-.54,14.558,14.558,0,0,0-2.392-3.164,1.077,1.077,0,0,1,1.512-1.533,16.654,16.654,0,0,1,2.746,3.625,1.076,1.076,0,0,1-.933,1.612Z" fill="#f7617e"/>
    <path id="Trazado_2529" data-name="Trazado 2529" d="M255.664,7832.4a1.075,1.075,0,0,1-1.005-1.462c.435-1.133,1.286-3.374,2.093-5.651a1.076,1.076,0,1,1,2.041.685l-.012.033c-.815,2.3-1.673,4.562-2.112,5.7a1.075,1.075,0,0,1-1.005.692Z" fill="#f7617e"/>
    <path id="Trazado_2530" data-name="Trazado 2530" d="M237.4,7790.984h-.039a1.076,1.076,0,0,1,.006-2.153h.028a5.98,5.98,0,0,0,3.054-.646,2,2,0,0,1,1.313-.474,2.1,2.1,0,0,0,.789-.173,1.077,1.077,0,0,1,1.055,1.877l-.059.031a4.088,4.088,0,0,1-1.588.409c-.06.006-.117.009-.169.015-1.28,1.05-3.786,1.114-4.39,1.114Z" fill="#66425e"/>
    <path id="Trazado_2531" data-name="Trazado 2531" d="M256.747,7804.161c-.566.154-3.3.76-4.456,1.018-.323.072-.524.115-.524.115l-3.035.768-.345-5.39-.708-18.821a.836.836,0,0,1,1.6-.381c2.122,5.759,2.663,10.722,6.525,15.743a35.941,35.941,0,0,1,.926,5.626v.007a12.817,12.817,0,0,1,.02,1.315Z" fill="#66425e"/>
    <path id="Trazado_2532" data-name="Trazado 2532" d="M241.041,7772.4a24.637,24.637,0,0,1,7.32,13.228c1.058,5.179,1.769,10.112,4.149,13a29.221,29.221,0,0,0,4.213,4.22,21.036,21.036,0,0,0,3.093,2.088c.266.144.531.28.79.409a19.653,19.653,0,0,0,7.679,1.873,1.186,1.186,0,0,1,.23,2.326,16.054,16.054,0,0,1-3.7.567,16.358,16.358,0,0,1-7.421-1.543c-.33-.151-.66-.309-.983-.488a23.644,23.644,0,0,1-9.531-9.905,24.367,24.367,0,0,1-1.665-3.954c-1.119-3.488-1.815-7.134-3.007-10.586a29.092,29.092,0,0,0-1.435-3.466,10.416,10.416,0,0,0-4.479-4.981c-2.052-.983-5.641-.818-7.011,1-3.036,1.112-4.988,9.186-5.6,13.428a27.106,27.106,0,0,1-1.012,4.858A29.562,29.562,0,0,1,218.14,7803a16.387,16.387,0,0,0-2.526,5.461,19.9,19.9,0,0,0-.352,8.921.978.978,0,0,1,.022.345c-.036.653-.754.653-1.572-.158-.947-.926-2.045-2.929-2.426-6.237-1.375-11.916,8.407-13.45,8.034-27.523,0,0,2.976-11.6,10.026-13.662,5.121-1.5,8.017-.838,11.7,2.249Z" fill="#7f576e"/>
    <path id="Trazado_2533" data-name="Trazado 2533" d="M241.152,7806.156c-2.691,2.448-5.282,2.333-7.069,1.328a1.3,1.3,0,0,0,.007-.165c0-.517-.022-1-.043-1.407a7.231,7.231,0,0,0,2.139.431c1.062-.05,3.043-1.1,4.392-1.651.165-.071.33-.143.488-.215a8.809,8.809,0,0,0,.086,1.679Z" fill="#f44770"/>
    <path id="Trazado_2534" data-name="Trazado 2534" d="M214.842,7819.276a1.988,1.988,0,0,1-.746-.151c-1.561-.623-3.365-3.235-3.876-7.667-.724-6.276,1.541-9.972,3.732-13.546s4.473-7.3,4.294-14.076a1.076,1.076,0,0,1,1.047-1.1,1.057,1.057,0,0,1,1.1,1.011v.036c.2,7.417-2.356,11.583-4.609,15.258-2.182,3.561-4.068,6.636-3.428,12.174a11.17,11.17,0,0,0,1.63,5.024,20.274,20.274,0,0,1,3.289-13.874c4.369-5.942,4.952-10.091,5.295-12.57l.045-.328c.181-1.265,1.855-12.177,6-14.168,1.795-2.028,5.691-2.272,8.143-1.087a11.262,11.262,0,0,1,4.973,5.469,47.123,47.123,0,0,1,3.148,9.37c.416,1.6.845,3.257,1.353,4.838,3,9.319,12.047,17.33,22,14.613.047-.013.084-.022.072-.121s-.038-.092-.087-.095c-4.767-.3-10.46-1.6-16.541-8.977-3.762-4.563-5.877-14.839-6.121-20.345a1.078,1.078,0,0,1,1.028-1.124,1.052,1.052,0,0,1,1.12.98l0,.048c.241,5.424,2.332,15.072,5.633,19.072,5.542,6.722,10.492,7.912,15.015,8.2a2.265,2.265,0,0,1,.444,4.442c-11.2,3.06-21.31-5.749-24.613-16.031-.528-1.64-.966-3.326-1.388-4.957a44.842,44.842,0,0,0-2.989-8.947,9.238,9.238,0,0,0-3.982-4.491c-1.675-.808-4.685-.646-5.681.68a1.088,1.088,0,0,1-.491.364c-2.053.752-4.107,6.985-4.9,12.576l-.046.321c-.349,2.506-1,7.167-5.691,13.547a18.315,18.315,0,0,0-2.693,13.529,1.71,1.71,0,0,1-.5,1.765,1.5,1.5,0,0,1-.976.345Z" fill="#7f576e"/>
    <path id="Trazado_2535" data-name="Trazado 2535" d="M230.79,7825.193a1.075,1.075,0,0,1-1.076-1.023c-.145-2.967,1.052-4.466,2.9-6.412a1.076,1.076,0,0,1,1.562,1.48c-1.722,1.815-2.409,2.76-2.307,4.825a1.077,1.077,0,0,1-1.022,1.129Z" fill="#f7617e"/>
    <path id="Trazado_2536" data-name="Trazado 2536" d="M241.614,7819.439a1.135,1.135,0,0,1-.295-.042,1.1,1.1,0,0,1-.741-1.35c1.374-4.931,6.5-8.948,8.84-9.492a1.076,1.076,0,0,1,1.289.81l0,.012a1.094,1.094,0,0,1-.809,1.312c-1.6.372-6.106,3.855-7.248,7.955a1.082,1.082,0,0,1-1.039.795Z" fill="#33335b"/>
    <path id="Trazado_2537" data-name="Trazado 2537" d="M223.922,7819.251a1.075,1.075,0,0,1-1.025-.76,12.922,12.922,0,0,1,1.4-11.03,10.133,10.133,0,0,1,.642-.824,1.064,1.064,0,0,1,1.5-.117l.018.017a1.108,1.108,0,0,1,.1,1.545,7.986,7.986,0,0,0-.508.651,10.664,10.664,0,0,0-1.1,9.088,1.1,1.1,0,0,1-.7,1.377,1,1,0,0,1-.329.053Z" fill="#33335b"/>
    <path id="Trazado_2538" data-name="Trazado 2538" d="M259.785,7853.87c-.9-2.76-5.511-7.756-7.215-9.127-6.028-4.852-5.135-9.155-3.462-13.875a1.108,1.108,0,0,0-.269-1.166c-1.945-1.907-4.713-6.367-6.191-11.657a1.087,1.087,0,0,0-.554-.68,1.065,1.065,0,0,0-.867-.043,25.118,25.118,0,0,0-9.305,6.714.855.855,0,0,1-1.207.068.832.832,0,0,1-.141-.162c-1.292-1.878-4.3-6.014-6.275-6.811a1.076,1.076,0,0,0-1.2.33c-1.527,1.758-4.019,6.919-4.026,9.586-.007,2.924,1.838,5.664,3.623,8.314l.123.184c7.214,10.717,5.885,18.39,5.869,18.467a1.1,1.1,0,0,0,.228.9,1.064,1.064,0,0,0,.829.4h29.023a1.073,1.073,0,0,0,.874-.454,1.111,1.111,0,0,0,.147-.987Z" fill="#33335b"/>
  </g>
</svg>
