<svg xmlns="http://www.w3.org/2000/svg" width="87.193" height="89.261" viewBox="0 0 87.193 89.261">
  <g id="Grupo_8374" data-name="Grupo 8374" transform="translate(-190.988 -7918.839)">
    <path id="Trazado_2539" data-name="Trazado 2539" d="M229.447,7959.5a2.187,2.187,0,0,1,3.067.393,2.23,2.23,0,0,1,.475,1.594l1.836-1.451a1.645,1.645,0,0,0,.243-2.312l-1.825-2.306a2.244,2.244,0,1,0-1.993-2.6l-1.752-2.363a1.646,1.646,0,0,0-2.3-.366l-1.878,1.4a2.222,2.222,0,0,1,1.413.872,2.2,2.2,0,0,1-3.485,2.672,2.231,2.231,0,0,1-.475-1.594l-1.835,1.45a1.644,1.644,0,0,0-.243,2.312l1.824,2.306a2.244,2.244,0,1,0,1.993,2.6l1.754,2.359a1.643,1.643,0,0,0,2.294.373h0l1.878-1.4a2.222,2.222,0,0,1-1.413-.873,2.186,2.186,0,0,1,.412-3.063l.005,0Z" fill="#f74d66"/>
    <path id="Trazado_2540" data-name="Trazado 2540" d="M244.292,7954.033a1.469,1.469,0,0,0,1.235.422l4.874-.624a1.183,1.183,0,0,0,.685-2.009l-.5-.5,2.225-2.222a1.488,1.488,0,0,0,0-2.1h0l-1.47-1.47a1.489,1.489,0,0,0-2.1-.007L247,7947.739l-.5-.5a1.182,1.182,0,0,0-2.009.685l-.625,4.873a1.475,1.475,0,0,0,.422,1.235Z" fill="#339eef"/>
    <path id="Trazado_2541" data-name="Trazado 2541" d="M223.586,7974.74a1.471,1.471,0,0,0-1.236-.422l-4.873.624a1.184,1.184,0,0,0-.685,2.009l.5.5-2.216,2.247a1.486,1.486,0,0,0,.006,2.1l1.471,1.471a1.489,1.489,0,0,0,2.1,0h0l2.221-2.226.5.5a1.184,1.184,0,0,0,2.009-.686l.625-4.874a1.471,1.471,0,0,0-.422-1.234Z" fill="#339eef"/>
    <path id="Trazado_2542" data-name="Trazado 2542" d="M263.442,7985.469c1.451,1.517,4.255,4.709,7.379,6.591.409.551.019,3.326-1.264,5.634-1.678,3.019-5.068,4.661-5.194,4.817a28.641,28.641,0,0,0-10.161-2.983c-3.288-.4-9.1-.543-12.832-2.842-.2-.119-.387-.245-.58-.372a16.476,16.476,0,0,1-4.813-4.954c-2.031-3.28-2.5-6.717-1.5-8.51a9.933,9.933,0,0,1-.245-5.571c.6-1.48,2.284-1.845,3.094-.833a1.732,1.732,0,0,1,.357.714c.967,3.5,3.571,7.818,6.182,9.38,3.533,2.1,6.553-.952,6.866-3.08.275-1.9-1.146-5.965-1.882-8.837-.134-.543-.246-1.041-.327-1.473-.536-3.049,2.759-5.5,3.964-2.454a32.623,32.623,0,0,0,3.139,5.527,92.958,92.958,0,0,0,7.82,9.246Z" fill="#ff977b"/>
    <path id="Trazado_2543" data-name="Trazado 2543" d="M234.692,7944.091a9.936,9.936,0,0,1,.245,5.572c-.6,1.48-2.284,1.845-3.094.833a1.739,1.739,0,0,1-.357-.714c-.968-3.5-3.571-7.818-6.182-9.38-3.533-2.1-6.553.952-6.866,3.079-.275,1.905,1.146,5.966,1.882,8.838.134.543.246,1.041.327,1.472.536,3.05-2.759,5.5-3.964,2.455a32.555,32.555,0,0,0-3.14-5.527,92.615,92.615,0,0,0-7.818-9.246c-1.45-1.518-4.254-4.709-7.379-6.591a10.9,10.9,0,0,1,1.105-5.794c1.642-3.038,5.226-4.5,5.356-4.657a28.65,28.65,0,0,0,10.161,2.983c3.288.4,9.1.543,12.832,2.841.2.119.386.246.58.372a16.491,16.491,0,0,1,4.813,4.955C235.22,7938.862,235.688,7942.3,234.692,7944.091Z" fill="#ff977b"/>
    <path id="Trazado_2544" data-name="Trazado 2544" d="M247.505,7966.139l1.815,1.562a1.661,1.661,0,0,1,.177,2.344l-5.016,5.834a1.663,1.663,0,0,1-2.344.177l-1.814-1.562a2.211,2.211,0,1,1-2.4-2.058l-2.231-1.917a1.645,1.645,0,0,1-.2-2.316l1.526-1.773a2.235,2.235,0,0,1-1.574-.54,2.162,2.162,0,1,1,2.78-3.313l.037.031a2.237,2.237,0,0,1,.771,1.475l1.524-1.772a1.643,1.643,0,0,1,2.32-.149l2.231,1.917a2.206,2.206,0,1,0,2.4,2.06Z" fill="#4a67ce"/>
    <path id="Trazado_2545" data-name="Trazado 2545" d="M234.7,7944.836a.743.743,0,0,1-.71-.527c-1.109-3.592-3.05-8.019-8.228-10.389a.744.744,0,0,1,.619-1.353c5.719,2.616,7.83,7.415,9.03,11.306a.742.742,0,0,1-.711.963Z" fill="#ed4850"/>
    <path id="Trazado_2546" data-name="Trazado 2546" d="M243.1,7994.44a.734.734,0,0,1-.309-.068c-5.728-2.621-7.83-7.418-9.023-11.307a.744.744,0,0,1,1.422-.436c1.1,3.589,3.033,8.012,8.22,10.387a.744.744,0,0,1-.31,1.421Z" fill="#ed4850"/>
    <g id="Grupo_8373" data-name="Grupo 8373">
      <path id="Trazado_2547" data-name="Trazado 2547" d="M198.839,7933.795c-.244.512-.462,1-.648,1.465a1.339,1.339,0,0,1-1.72.793,1.3,1.3,0,0,1-.151-.067l-4.619-2.444a1.32,1.32,0,0,1-.648-1.581c.783-2.464,5.537-10.352,7.873-12.846a1.189,1.189,0,0,1,1.444-.061l4.368,3.025a1.323,1.323,0,0,1,.493,1.806,1.375,1.375,0,0,1-.149.211c-.2.238-.437.52-.7.848A56.344,56.344,0,0,0,198.839,7933.795Z" fill="#4e3d7c"/>
      <path id="Trazado_2548" data-name="Trazado 2548" d="M270.33,7993.147c.244-.513.463-1,.649-1.465a1.338,1.338,0,0,1,1.719-.794,1.4,1.4,0,0,1,.152.067l4.618,2.445a1.319,1.319,0,0,1,.649,1.577c-.783,2.464-5.537,10.352-7.873,12.847a1.191,1.191,0,0,1-1.445.061l-4.368-3.025a1.325,1.325,0,0,1-.492-1.808,1.357,1.357,0,0,1,.149-.209c.2-.238.437-.521.7-.848a56.287,56.287,0,0,0,5.546-8.848Z" fill="#4e3d7c"/>
    </g>
  </g>
</svg>
