<svg xmlns="http://www.w3.org/2000/svg" width="87.208" height="89.716" viewBox="0 0 87.208 89.716">
  <g id="Growth_love" data-name="Growth love" transform="translate(-190.981 -8071.627)">
    <path id="Trazado_2549" data-name="Trazado 2549" d="M223.948,8135.686a1.008,1.008,0,0,1-.585,1.864c-8.735,0-10.027-4.562-8.688-6.169,3.074-3.7,6.814,2.092,9.273,4.305Z" fill="#25c194"/>
    <path id="Trazado_2550" data-name="Trazado 2550" d="M243.436,8126.422c1.339,1.607.05,6.169-8.687,6.169a1.008,1.008,0,0,1-.586-1.865C236.623,8128.511,240.362,8122.723,243.436,8126.422Z" fill="#25c194"/>
    <path id="Trazado_2551" data-name="Trazado 2551" d="M231.039,8124.647c-.01,4.145-.019,12.228,2.8,18.973,1.424,3.242.463,3.855-.142,4.311a4.759,4.759,0,0,1-3.858.628c-.495-.1-1.6-1.5-2.258-3.57-1.666-7.171-.327-18.378.5-20.541a5.506,5.506,0,0,0,2.946.119Z" fill="#26918e"/>
    <path id="Trazado_2552" data-name="Trazado 2552" d="M249.367,8093.594c6.368,9.183,1.964,23.178-17.623,30.755a4.671,4.671,0,0,1-.724.218,5.506,5.506,0,0,1-2.946-.119,2.485,2.485,0,0,1-.288-.1c-19.588-7.58-23.991-21.575-17.624-30.758,4.047-5.855,15.77-7.142,19.6.148,3.838-7.29,15.551-6,19.607-.148Z" fill="#f77066"/>
    <path id="Trazado_2553" data-name="Trazado 2553" d="M251.729,8086.964a1.3,1.3,0,0,0-.523-.539l-2.194-1.2a1.344,1.344,0,0,1,0-2.368l2.194-1.184a1.3,1.3,0,0,0,.523-.539l1.2-2.194a1.343,1.343,0,0,1,1.185-.7,1.324,1.324,0,0,1,1.183.7l1.2,2.194a1.341,1.341,0,0,0,.54.539l2.2,1.185a1.359,1.359,0,0,1,0,2.368l-2.194,1.2a1.341,1.341,0,0,0-.54.539l-1.2,2.193a1.326,1.326,0,0,1-1.183.7,1.345,1.345,0,0,1-1.185-.7Z" fill="#ffcf6e"/>
    <path id="Trazado_2554" data-name="Trazado 2554" d="M242.146,8079.11l-.836-1.5a.889.889,0,0,0-.355-.376l-1.505-.815a.927.927,0,0,1,0-1.632l1.505-.814a.952.952,0,0,0,.355-.357l.836-1.5a.914.914,0,0,1,1.609,0l.836,1.5a.959.959,0,0,0,.355.357l1.505.814a.926.926,0,0,1,0,1.632l-1.505.815a.9.9,0,0,0-.355.376l-.836,1.5a.914.914,0,0,1-1.609,0Z" fill="#ffcf6e"/>
    <g id="Grupo_8376" data-name="Grupo 8376">
      <path id="Trazado_2555" data-name="Trazado 2555" d="M202.652,8161.021a2.846,2.846,0,0,1,.071-.694c.232-.623,1.255-.634,2.145-.9.329-.1.616-.192.72-.236a7.165,7.165,0,0,0,3.057-2.821c1.259-2.846,4.671-2.172,4.919-3.035.992-3.531,5.167-5.356,7.9-5.177a2.629,2.629,0,0,0,2.543-1.051,4.673,4.673,0,0,1,3.571-2.122,4.815,4.815,0,0,1,1.49.066,3.341,3.341,0,0,0,2.536-.612,5.493,5.493,0,0,1,2.232-.823c2.83-.48,6.686.5,8.279,3.364a3.288,3.288,0,0,0,2.61,1.642,8.287,8.287,0,0,1,6.742,5.311,2.7,2.7,0,0,0,2.147,1.623c1.439.168,3.232.455,3.839,2.7a5.067,5.067,0,0,0,1.545,2.052.4.4,0,0,1-.275.693Z" fill="#f99f62"/>
      <path id="Trazado_2556" data-name="Trazado 2556" d="M199.358,8159.994a2.427,2.427,0,0,1-.294,1.349h-7.548a.532.532,0,0,1-.168-1.038c1.5-.487,3.186-1.048,4.284-1.45a3.075,3.075,0,0,1,.943-.209c1.507-.03,2.611.552,2.783,1.348Z" fill="#f99f62"/>
      <path id="Trazado_2557" data-name="Trazado 2557" d="M267.02,8161.326h-2.434c-.427,0-1.137-.348-1.027-.761a2.35,2.35,0,0,1,1.741-1.638,2.6,2.6,0,0,1,2.3,1.383.678.678,0,0,1-.584,1.016Z" fill="#f99f62"/>
      <path id="Trazado_2558" data-name="Trazado 2558" d="M278.189,8161.242l-7.082-.12a.489.489,0,0,1-.451-.707,5.8,5.8,0,0,1,1.1-1.535,1.084,1.084,0,0,1,1.234,0,11.22,11.22,0,0,0,3.394,1.448c.447.1,1.637.17,1.8.914Z" fill="#f99f62"/>
    </g>
  </g>
</svg>
